<svg width="4000" height="4000" viewBox="0 0 4000 4000" fill="none" xmlns="http://www.w3.org/2000/svg">
<path d="M766.61 1446.45C766.61 1446.45 764.68 1365.45 844.72 1365.45C924.76 1365.45 1104.11 1423.31 1142.68 1487.91C1159.07 1519.73 1140.75 1549.62 1132.07 1557.34C1146.53 1584.34 1142.68 1612.3 1133.03 1651.84L1108.92 1750.2C1108.92 1750.2 1198.6 1775.27 1193.78 1894.84C1183.17 1989.34 1128.21 2067.45 1128.21 2067.45C1128.21 2067.45 1208.25 2144.59 1251.64 2223.66C1309.5 2174.48 1435.82 2064.55 1502.35 2050.09C1490.78 1989.34 1534.17 1946.91 1534.17 1946.91L1456.06 1722.23C1456.06 1722.23 1367.35 1604.59 1382.77 1479.23C1311.41 1424.27 1254.52 1328.8 1289.23 1198.62C1309.48 1104.12 1382.77 1054.94 1428.09 1026.01C1436.77 981.65 1381.8 914.15 1210.16 966.22C1225.59 888.11 1304.66 783.01 1407.84 742.51C1364.45 696.22 1211.13 676.94 1211.13 676.94C1211.13 676.94 1316.24 551.58 1557.31 567.01C1557.31 567.01 1534.17 513.01 1416.52 453.22C1507.16 387.65 1868.77 397.29 2021.13 531.33C2022.09 472.51 1949.77 369.33 1949.77 369.33C1949.77 369.33 2152.27 363.54 2297.88 576.65C2351.88 494.69 2323.92 391.51 2323.92 391.51C2323.92 391.51 2471.46 458.05 2467.6 620.05C2498.46 588.23 2662.39 557.37 2731.81 617.16C2695.17 623.91 2606.45 722.27 2606.45 722.27C2606.45 722.27 2755.91 764.7 2798.34 931.52C2728.91 906.45 2649.84 911.27 2649.84 911.27C2649.84 911.27 2733.73 1024.09 2727.95 1152.34C2699.02 1115.7 2634.41 1111.84 2634.41 1111.84C2634.41 1111.84 2640.2 1183.2 2621.87 1261.3C2659.48 1276.73 2733.73 1334.59 2686.48 1493.69C2641.16 1628.69 2543.77 1719.33 2439.62 1698.12L2424.19 1738.62C2424.19 1738.62 2650.8 1737.66 2613.19 1962.33C2613.19 1962.33 2672.98 1983.54 2701.9 2011.51L2752.04 1812.87C2752.04 1812.87 2661.4 1762.73 2698.04 1642.19C2724.08 1555.4 2813.75 1566.98 2813.75 1566.98L2872.57 1320.12C2872.57 1320.12 2888.96 1273.83 2913.07 1267.08C2922.71 1215.01 2928.5 1183.19 2997.93 1173.54C3067.36 1165.83 3276.61 1207.27 3319.04 1296.48C3332.54 1333.61 3305.54 1353.86 3305.54 1353.86C3305.54 1353.86 3329.65 1382.79 3307.47 1462.82C3285.29 1542.86 3262.15 1644.11 3262.15 1644.11C3262.15 1644.11 3388.47 1705.82 3293.97 1827.32C3324.83 1879.39 3293.01 1940.14 3264.08 1964.25C3271.79 2020.18 3245.76 2102.14 3186.94 2172.54C3202.37 2213.04 3190.8 2339.36 3112.69 2476.29C3033.62 2613.22 2915.98 2645.04 2775.19 2578.5C2672.98 2521.61 2624.76 2486.89 2588.12 2455.07L2594.87 2754L3322.9 2758.82C3322.9 2758.82 3478.15 2762.68 3495.51 2937.21V3233.25C3495.51 3233.25 3499.37 3403.93 3292.05 3417.43H655.71C655.71 3417.43 497.57 3395.25 489.85 3234.22V2918.9C489.85 2918.9 495.64 2781.01 655.71 2754.01L907.39 2754.97L790.71 2387.58C790.71 2387.58 775.28 2337.44 783.96 2321.04C783.96 2321.04 607.5 2284.4 572.78 2201.47C546.74 2145.54 569.89 2086.72 582.42 2021.15C537.1 1971.97 536.13 1925.69 587.24 1883.26C557.35 1850.47 566.99 1794.55 611.35 1757.9C590.14 1714.51 620.99 1628.69 700.06 1629.65L726.1 1517.79C726.1 1517.79 732.85 1460.9 766.6 1446.43L766.61 1446.45Z" fill="black"/>
<path d="M956.89 1250.7C954.3 1249.09 893.57 1216.95 876.85 1157.81C865.28 1117.31 922.49 1094.17 947.56 1144.95C972.63 1195.73 975.8 1262.5 956.88 1250.7H956.89Z" fill="#EE6C00"/>
<path d="M1065.91 1341.81C1067.97 1341.61 1069.96 1340.94 1071.8 1339.99C1082.02 1334.72 1126.69 1309.21 1134.65 1262.59C1139.79 1229.8 1095.44 1219.52 1069.72 1262.59C1049.57 1293.13 1043.34 1343.97 1065.91 1341.81Z" fill="#EE6C00"/>
<path d="M1470.21 914.16C1470.21 914.16 1539.96 812.59 1644.1 778.84C1644.1 778.84 1598.78 740.27 1565.03 725.8C1636.39 705.55 1797.42 760.51 1885.17 828.01C1961.35 781.72 2147.46 704.58 2330.67 828.97C2462.78 927.33 2540.88 1137.54 2540.88 1137.54C2540.88 1137.54 2552.45 1105.72 2540.88 1000.61C2615.13 1012.18 2638.27 1034.36 2638.27 1034.36C2638.27 1034.36 2628.63 966.86 2528.34 876.22C2573.66 850.18 2697.09 851.15 2697.09 851.15C2697.09 851.15 2628.63 772.08 2495.55 766.29C2531.23 711.33 2605.48 638.04 2605.48 638.04C2605.48 638.04 2496.07 654.08 2397.19 731.58C2426.12 656.37 2410.69 561.87 2378.87 518.47C2366.33 601.4 2282.44 692.04 2282.44 692.04C2282.44 692.04 2225.55 521.36 2065.48 463.5C2089.59 523.29 2092.16 617.79 2083.64 677.57C2008.59 599.46 1862.5 450 1571.77 481.82C1625.29 521.36 1719.79 666 1719.79 666C1719.79 666 1554.9 585 1367.83 641.89C1367.83 641.89 1500.9 710.35 1537.54 774C1487.4 767.25 1388.08 797.14 1321.54 875.25C1363.97 869.46 1411.54 879.75 1470.2 914.14L1470.21 914.16Z" fill="#743D20"/>
<path d="M1367.84 641.91C1367.84 641.91 1386.09 651.3 1410.92 666.35C1481.48 657.28 1606.57 646.49 1719.8 666.02C1719.8 666.02 1554.91 585.02 1367.84 641.91Z" fill="#915025"/>
<path d="M1571.78 481.84C1571.78 481.84 1894.98 525.23 2083.65 677.59C2008.6 599.48 1862.51 450.02 1571.78 481.84Z" fill="#915025"/>
<path d="M2065.5 463.52C2071.49 478.38 2076.15 495.39 2079.64 513.48C2121.07 536.03 2203.57 589.6 2282.46 692.06C2282.46 692.06 2225.57 521.38 2065.5 463.52Z" fill="#915025"/>
<path d="M1499 994C1499 994 1662.29 968.29 1738.14 1141.86C1738.14 1141.86 1759.46 1116.25 1769.75 1111.54C1777.46 1133.4 1777.89 1163.4 1777.89 1163.4C1777.89 1163.4 1833.6 1137.26 1888.89 1169.4C1915.89 1108.54 2003.75 978.9 2176.35 996.26C2287.24 1017.47 2339.31 1093.65 2373.06 1202.62H2421.27C2421.27 1202.62 2416.02 1112.51 2372.73 1056.37C2400.59 1057.23 2434.87 1086.37 2434.87 1086.37C2434.87 1086.37 2401.87 927.37 2232.8 855.37C2097.8 803.94 1967.3 847.01 1880.51 917.73C1814.3 848.94 1694.72 775.02 1574.51 890.73C1517.94 942.16 1498.97 994.02 1498.97 994.02L1499 994Z" fill="#FEB06B"/>
<path d="M2393.96 992.5C2363.64 979.72 2316.97 962.67 2282.46 962.07C2322.87 1012.87 2344.53 1070.16 2351.41 1143.85C2359.49 1162.14 2366.62 1181.77 2373.07 1202.61H2421.28C2421.28 1202.61 2416.03 1112.5 2372.74 1056.36C2400.6 1057.22 2434.88 1086.36 2434.88 1086.36C2434.88 1086.36 2426.02 1043.66 2393.95 992.5H2393.96Z" fill="#EE954C"/>
<path d="M1681.25 1359.35C1676.56 1361.59 1741.04 1193.49 1608.93 1114.42C1474.89 1038.24 1357.25 1163.6 1359.18 1260.99C1361.11 1358.38 1411.25 1436.49 1512.5 1449.99C1592.54 1453.85 1633.04 1414.31 1633.04 1414.31C1633.04 1414.31 1633.68 1438.1 1620.18 1453.52C1580.32 1474.73 1434.39 1528.09 1346.97 1360.95C1318.04 1304.38 1303.9 1187.38 1401.61 1101.24C1444.68 1060.1 1587.4 1002.24 1682.54 1135.31C1728.83 1212.45 1739.75 1331.38 1681.25 1359.35Z" fill="#726D6A"/>
<path d="M1530.15 1129.85C1456.53 1129.85 1396.86 1193.53 1396.86 1272.08C1396.86 1350.63 1456.54 1414.31 1530.15 1414.31C1603.76 1414.31 1663.44 1350.63 1663.44 1272.08C1663.44 1193.53 1603.76 1129.85 1530.15 1129.85ZM1545.78 1324.35C1521.76 1324.35 1502.28 1304.87 1502.28 1280.85C1502.28 1256.83 1521.76 1237.35 1545.78 1237.35C1569.8 1237.35 1589.28 1256.83 1589.28 1280.85C1589.28 1304.87 1569.8 1324.35 1545.78 1324.35Z" fill="#F5ECDD"/>
<path d="M2165.39 1060.02C2128.57 1052.48 2090.37 1053.76 2054.63 1065.37C2005.66 1081.28 1971.07 1112.02 1944.07 1151.07C1944.07 1151.07 1885.57 1229.5 1910 1340.71C1935.71 1424.92 1998.71 1516.85 2154.93 1500.78C2237.22 1487.28 2315 1414.64 2333.64 1307.28C2345.21 1219.85 2306.09 1088.82 2165.39 1060.01V1060.02ZM2115.71 1474.55C2014.51 1474.55 1932.46 1389.9 1932.46 1285.47C1932.46 1181.04 2014.5 1096.39 2115.71 1096.39C2216.92 1096.39 2298.96 1181.04 2298.96 1285.47C2298.96 1389.9 2216.92 1474.55 2115.71 1474.55Z" fill="#726D6A"/>
<path d="M2115.71 1134.74C2032.46 1134.74 1964.98 1202.84 1964.98 1286.85C1964.98 1370.86 2032.47 1438.96 2115.71 1438.96C2198.95 1438.96 2266.44 1370.86 2266.44 1286.85C2266.44 1202.84 2198.95 1134.74 2115.71 1134.74ZM2106.82 1338.07C2082.14 1338.07 2062.14 1318.07 2062.14 1293.39C2062.14 1268.71 2082.14 1248.71 2106.82 1248.71C2131.5 1248.71 2151.5 1268.71 2151.5 1293.39C2151.5 1318.07 2131.5 1338.07 2106.82 1338.07Z" fill="#F5ECDD"/>
<path d="M1760.86 1252.64V1218.78C1760.86 1218.78 1808.43 1179.78 1872.72 1218.78L1865.86 1252.64C1865.86 1252.64 1821.29 1219.21 1760.86 1252.64Z" fill="#726D6A"/>
<path d="M1910.43 1450C1910.43 1450 1877 1412.29 1865 1335.14C1852.14 1279.43 1817.86 1265.28 1774.57 1300.85C1749.28 1320.14 1734.28 1373.28 1744.57 1410.56C1706.86 1399.85 1667.43 1408.85 1673 1470.13C1680.29 1522.42 1741.57 1560.56 1812.71 1543.42C1883.85 1523.71 1897.57 1486.85 1910.42 1449.99L1910.43 1450Z" fill="#FEB06B"/>
<path d="M1891.89 1420.87C1879.08 1462.58 1854.89 1503.45 1809.28 1513C1729.07 1527.19 1688.77 1484.98 1672.48 1460.21C1672.51 1463.36 1672.68 1466.66 1673 1470.14C1680.29 1522.43 1741.57 1560.57 1812.71 1543.43C1883.85 1523.72 1897.57 1486.86 1910.42 1450C1910.42 1450 1901.88 1440.36 1891.89 1420.87Z" fill="#EE934A"/>
<path d="M2382.28 1286.84C2382.28 1286.84 2385.28 1273.21 2382.28 1256.07C2382.28 1256.07 2395.14 1256.07 2424.71 1258.64C2451.27 1260.95 2498.42 1269.35 2497.57 1284.35C2496.71 1297.21 2477.86 1293.78 2477.86 1293.78L2382.29 1286.84H2382.28Z" fill="#726D6A"/>
<path d="M2607.28 1320.78C2548.46 1279.32 2477.1 1372.78 2411.53 1474.55C2417.32 1408.53 2425.03 1370.93 2408.64 1331.39C2389.35 1324.64 2376.5 1326.57 2376.5 1326.57C2376.5 1326.57 2358.5 1507.27 2158.89 1547.58C2020.03 1563.78 1951.57 1490.5 1951.57 1490.5C1951.57 1490.5 1897.57 1604.29 1771.25 1597.54C1663.25 1586.93 1637.21 1522.48 1632.39 1502.63C1597.68 1525.21 1509.93 1540.64 1437.6 1507.86C1433.74 1561.86 1446.28 1614.9 1498.35 1684.32C1534.03 1771.11 1563.92 1916.71 1643.96 2035.32C1714.35 2131.75 1829.54 2212.75 2000 2173.21C2170.46 2126.92 2261.1 1977.46 2316.07 1857.89C2358.5 1772.07 2396.11 1669.85 2408.64 1575.35C2429.85 1624.53 2460.71 1680.46 2558.1 1603.31C2616.92 1540.63 2697.92 1387.31 2607.28 1320.77V1320.78ZM2000 2070.57C1847.43 2122.64 1704.71 2084.07 1627.57 1870C1588.03 1732.11 1587.07 1708.96 1582.25 1674.25C1576.46 1640.5 1535 1655.93 1517.64 1632.79C1500.28 1609.65 1529.21 1573.97 1582.25 1600C1582.25 1600 1822.36 1713.79 2083.68 1591.32C2162.75 1558.53 2238.93 1548.77 2250.5 1619.71C2262.07 1690.64 2188.25 1998.25 2000 2070.57ZM2603.43 1425.89C2587.04 1404.68 2569.53 1396.96 2539.71 1454.82C2565.82 1469.28 2569.16 1542.57 2497.58 1562.82C2524.35 1505.93 2507.1 1493.71 2479.25 1505.71C2473.25 1506.57 2473.25 1497.25 2473.25 1497.25C2473.25 1497.25 2473.25 1441.32 2544.61 1380.57C2588.97 1360.32 2615 1380.57 2603.43 1425.89Z" fill="#FEB06B"/>
<path d="M2558.1 1603.32C2616.92 1540.64 2697.92 1387.32 2607.28 1320.78C2548.46 1279.32 2477.1 1372.78 2411.53 1474.55C2417.32 1408.53 2425.03 1370.93 2408.64 1331.39C2389.35 1324.64 2376.5 1326.57 2376.5 1326.57C2376.5 1326.57 2372.24 1369.32 2344.9 1417.87C2336.51 1514.67 2311.37 1714.12 2239.57 1883.82C2144.19 2098.51 1978.44 2201.37 1766.4 2146.12C1828.59 2180.11 1905.86 2195.05 2000 2173.21C2170.46 2126.92 2261.1 1977.46 2316.07 1857.89C2358.5 1772.07 2396.11 1669.85 2408.64 1575.35C2429.85 1624.53 2460.71 1680.46 2558.1 1603.31V1603.32ZM2544.6 1380.57C2588.96 1360.32 2614.99 1380.57 2603.42 1425.89C2587.03 1404.68 2569.52 1396.96 2539.7 1454.82C2565.81 1469.28 2569.15 1542.57 2497.57 1562.82C2524.34 1505.93 2507.09 1493.71 2479.24 1505.71C2473.24 1506.57 2473.24 1497.25 2473.24 1497.25C2473.24 1497.25 2473.24 1441.32 2544.6 1380.57Z" fill="#EE954C"/>
<path d="M1639.14 1667.82C1639.14 1667.82 1891.14 1744.96 2151.5 1618.96C2159.86 1648.53 2127.71 1679.39 2127.71 1679.39C2127.71 1679.39 1952.85 1827.25 1684.14 1753.96C1625 1729.53 1639.14 1667.82 1639.14 1667.82Z" fill="#F5ECDD"/>
<path d="M1895 1976.39C1895 1976.39 1921.36 1928.82 1958 1881.25C1989.5 1843.32 2058.29 1849.75 2105.21 1871.61C2121.28 1881.25 2124.5 1888.32 2097.5 1925.61C2070.5 1962.9 1970.86 2059.32 1848.07 2027.18C1771.34 2003.35 1769.77 1986.35 1790.14 1943.86C1796.5 1930.59 1804.47 1918.11 1814.19 1907.06C1837.78 1880.24 1862.62 1870.76 1894.21 1877.67C1899.76 1878.88 1903.23 1884.46 1901.81 1889.97C1893.19 1923.33 1888.29 1987.97 1895 1976.4V1976.39Z" fill="#BC3721"/>
<path d="M973.79 2252.17C978.93 2248.96 1072.15 2223.24 1126.79 2141.6C1126.79 2141.6 1171.79 2194.31 1204.58 2252.17H973.79Z" fill="#426A3A"/>
<path d="M1306.79 2252.17L1678.36 2263.1C1678.36 2263.1 1540.79 2194.96 1518.29 2096.6C1518.29 2096.6 1466.22 2105.6 1306.79 2252.17Z" fill="#426A3A"/>
<path d="M1560.07 2002.75C1560.07 2002.75 1596.07 2122.96 1743.93 2191.75C1844.86 2235.46 1855.79 2247.68 1945.14 2351.18C1996.57 2286.25 2044.78 2233.54 2156 2157.68C2267.22 2081.82 2373.93 2021.39 2445.93 1926.25C2499.29 1853.61 2469.72 1833.68 2406.72 1820.18C2406.72 1820.18 2400.93 1814.39 2411.86 1793.82C2457.5 1789.32 2548.79 1811.82 2565.5 1897.96C2577.71 1968.03 2473.57 2072.82 2310.29 2153.17C2219 2200.74 2081.43 2250.88 2017.79 2346.67C2114.86 2309.38 2250.5 2254.74 2366.22 2185.31C2485.15 2114.6 2536.58 2065.74 2582.86 2010.45C2631.72 2013.66 2687.65 2072.16 2730.72 2115.24C2766.72 2153.81 2803.36 2187.88 2834.22 2210.38C2827.79 2242.52 2802.72 2339.59 2818.79 2386.52C2843.22 2358.88 2888.22 2216.81 2888.22 2216.81C2888.22 2216.81 2998.15 2338.31 3138.93 2239.31C3138.93 2239.31 3128 2398.1 3019.36 2509.31C2934.5 2579.38 2851.57 2549.17 2744.22 2490.02C2636.87 2430.87 2557.15 2347.31 2519.22 2297.16C2508.93 2291.37 2515.36 2426.37 2517.29 2550.45C2519.86 2673.24 2522.43 2754.24 2522.43 2754.24H2305.79V2684.81C2305.79 2684.81 2311.58 2634.67 2257.58 2624.38L1825.58 2609.59L1737.51 2292.66C1737.51 2292.66 1832.65 2343.45 1886.01 2356.3C1861.58 2296.51 1764.51 2248.94 1697.65 2212.3C1630.79 2175.66 1529.22 2103.66 1560.08 2002.73L1560.07 2002.75Z" fill="#426A3A"/>
<path d="M1906.78 2236.1C1906.78 2236.1 1955.64 2239.96 1986.49 2226.67C1975.78 2248.96 1944.06 2273.81 1944.06 2273.81C1944.06 2273.81 1917.49 2248.1 1906.77 2236.1H1906.78Z" fill="#FEB06B"/>
<path d="M2803.67 1615.21L2768.1 1762.21C2768.1 1762.21 2735.54 1739.09 2739.38 1681.5C2741.45 1650.46 2763.07 1623.94 2793.33 1616.72C2797.96 1615.62 2801.63 1615.21 2803.67 1615.21Z" fill="#FEB06B"/>
<path d="M2771.37 1949.18C2771.37 1949.18 2884.14 1931.82 3047.1 2009.93C3026.85 1956.89 3036.49 1908.68 3076.03 1883.61C3048.07 1842.15 3076.03 1788.36 3112.67 1762.22C3073.13 1723.54 3109.78 1630.97 3208.13 1636.76L3254.42 1457.4C3254.42 1457.4 3134.85 1349.76 2911.13 1372.72L2771.36 1949.18H2771.37Z" fill="#E66A00"/>
<path d="M3130.06 1658.77C3148.65 1644.1 3174.86 1634.79 3208.14 1636.74L3254.43 1457.38C3254.43 1457.38 3232.64 1437.78 3190.28 1417.09L3130.06 1658.77Z" fill="#C95701"/>
<path d="M2868.71 1899.03L3093.39 1682.07L3012.9 1640.6L3155.1 1506.57L3058.67 1461.25L2883.17 1680.14L2964.17 1710.03L2868.71 1899.03Z" fill="#FFAE16"/>
<path d="M3164.42 1762.21C3164.42 1762.21 3214.88 1766.6 3259.03 1794.89C3285.99 1765.95 3297.54 1720.58 3242.82 1695.42C3233.11 1690.96 3222.78 1687.94 3212.21 1686.39C3159.98 1678.76 3146.86 1712.04 3148.03 1733.18C3149.32 1748.61 3164.42 1762.22 3164.42 1762.22V1762.21Z" fill="#FEB06B"/>
<path d="M3132.17 1881.89C3132.17 1881.89 3188.29 1897.13 3219.54 1915.84C3224.14 1918.59 3229.94 1918.58 3234.38 1915.56C3257.26 1899.99 3272.12 1861.07 3234.17 1833.46C3204.36 1811.78 3169.9 1806.39 3152.04 1805.1C3139.74 1804.21 3127.66 1809.27 3119.94 1818.89C3113.65 1826.72 3108.7 1838.48 3110.32 1855.75C3114.18 1878.04 3132.18 1881.89 3132.18 1881.89H3132.17Z" fill="#FEB06B"/>
<path d="M2954.32 2196.03C2952.9 2194.98 3048.61 2222.17 3095.75 2171.17C3130.04 2134.31 3129.61 2105.6 3133.89 2080.31C3138.17 2055.02 3156.18 2029.31 3156.18 2029.31C3156.18 2029.31 3086.32 2010.45 3082.89 1965.88C3080.32 1933.74 3106.46 1918.74 3151.46 1934.17C3196.46 1949.6 3219.17 1960.31 3217.46 1992.88C3215.75 2025.45 3197.32 2093.59 3131.32 2172.88C3064.46 2238.88 3001.89 2231.17 2954.32 2196.02V2196.03Z" fill="#F0964B"/>
<path d="M3151.46 1934.18C3106.46 1918.75 3080.32 1933.75 3082.89 1965.89C3086.32 2010.46 3156.18 2029.32 3156.18 2029.32C3156.18 2029.32 3204.07 2040.68 3217.47 1992.89C3219.18 1960.32 3196.47 1949.6 3151.47 1934.18H3151.46Z" fill="#FEB06B"/>
<path d="M2943.92 1328.29C2981.5 1326.15 3132.44 1323.32 3254.18 1404.08C3258.23 1406.77 3263.64 1403.87 3263.64 1399.01V1372.62C3263.64 1370.63 3262.67 1368.77 3261.05 1367.63C3241.77 1354.06 3116.88 1271.94 2949.27 1294.95C2946.93 1295.27 2944.99 1296.94 2944.29 1299.2L2937.76 1320.42C2936.51 1324.48 2939.68 1328.54 2943.92 1328.3V1328.29Z" fill="#A7A29E"/>
<path d="M2977.5 1254.67C3011.66 1253.99 3138.11 1256.59 3256.22 1324.56C3259.86 1326.65 3264.47 1324.56 3265.26 1320.43L3268.07 1305.69C3268.51 1303.36 3267.57 1300.99 3265.64 1299.6C3246.48 1285.86 3140.91 1216.1 2983.52 1224.55C2981.08 1224.68 2978.96 1226.27 2978.13 1228.57L2971.64 1246.51C2970.18 1250.53 2973.22 1254.76 2977.5 1254.68V1254.67Z" fill="#A7A29E"/>
<path d="M3191.61 1370.32C3212.84 1379.52 3233.91 1390.64 3254.18 1404.08C3258.23 1406.77 3263.64 1403.87 3263.64 1399.01V1372.62C3263.64 1370.63 3262.67 1368.77 3261.05 1367.63C3253.64 1362.42 3230.61 1347.07 3195.57 1331.47C3194.13 1345.4 3192.76 1358.82 3191.61 1370.32Z" fill="#827E79"/>
<path d="M3199.18 1296.66C3218.13 1304.45 3237.28 1313.66 3256.22 1324.56C3259.86 1326.65 3264.47 1324.56 3265.26 1320.43L3268.07 1305.69C3268.51 1303.36 3267.57 1300.99 3265.64 1299.6C3257.91 1294.06 3236.13 1279.41 3202.57 1264.45C3201.55 1274.16 3200.39 1285.17 3199.19 1296.66H3199.18Z" fill="#827E79"/>
<path d="M2755.78 2034.78L2762.21 1991.07C2762.21 1991.07 2970.57 1976.93 3085.93 2085.57L3075.29 2128C3075.29 2128 2993.65 2027.07 2755.79 2034.79L2755.78 2034.78Z" fill="#A6A19A"/>
<path d="M3013.73 2083.03C3057.32 2105.81 3075.28 2128 3075.28 2128L3085.92 2085.57C3067.75 2068.46 3047.28 2054.4 3025.67 2042.84C3021.62 2056.54 3016.96 2072.18 3013.72 2083.02L3013.73 2083.03Z" fill="#88827E"/>
<path d="M2770.64 2074.56C2766.15 2075.22 2764.55 2080.86 2768 2083.8C2785.32 2098.52 2832.6 2131.58 2925.49 2151.14C3047.63 2176.85 3055.35 2160.14 3027.06 2137C2999.68 2114.6 2878.1 2058.85 2770.64 2074.57V2074.56Z" fill="#6E6966"/>
<path d="M996.5 2179.42C996.5 2179.42 1053.71 2163.35 1074.29 2119.63C1076.22 2085.56 1074.29 2064.99 1074.29 2064.99C1074.29 2064.99 1138.58 1985.92 1142.43 1906.2C1146.28 1826.48 1115.43 1787.91 1069.47 1805.91C1033.79 1821.34 1006.79 1839.34 1015.79 1881.12C1023.5 1910.05 1066.58 1900.41 1098.72 1875.33C1120.58 1868.26 1100.33 1927.4 1069.63 1937.69C1062.72 1944.12 1054.36 1946.69 1018.36 2093.26C1004.22 2136.97 996.5 2179.4 996.5 2179.4V2179.42Z" fill="#F0964B"/>
<path d="M1069.46 1805.93C1033.78 1821.36 1006.78 1839.36 1015.78 1881.14C1023.49 1910.07 1066.57 1900.43 1098.71 1875.35C1120.57 1868.28 1100.32 1927.42 1069.62 1937.71C1065.76 1941.3 1061.45 1943.7 1052.14 1970.57C1067.32 1979.44 1092.86 1986.64 1128.1 1970.23C1135.71 1950.03 1141.35 1928.15 1142.42 1906.21C1146.28 1826.5 1115.42 1787.92 1069.46 1805.92V1805.93Z" fill="#FEB06B"/>
<path d="M600.93 2154.46C600.93 2154.46 600.07 2129.17 610.79 2115.46C655.79 2114.17 823.15 2136.67 924.72 2218.32C924.72 2218.32 918.93 2244.03 908.01 2254.32C877.15 2229.25 794.01 2166.46 600.94 2154.46H600.93Z" fill="#A6A29A"/>
<path d="M875.29 2230.55C889.85 2239.86 900.48 2248.21 908 2254.32C918.93 2244.03 924.71 2218.32 924.71 2218.32C914.08 2209.78 902.72 2201.89 890.87 2194.6C885.72 2206.44 879.91 2219.83 875.29 2230.56V2230.55Z" fill="#75716E"/>
<path d="M634.28 2192.07C650.18 2193.03 754.93 2201.12 840.7 2252.31C847.2 2256.19 847.9 2265.36 842.02 2270.14C836.65 2274.51 830.06 2277.24 826.46 2278.52C824.79 2279.11 823.02 2279.3 821.27 2279.05C802.75 2276.41 686.77 2258.01 628.76 2204.55C628.49 2204.3 628.23 2204.04 627.98 2203.77C622.51 2197.6 626.14 2194.43 629.22 2192.98C630.79 2192.24 632.54 2191.97 634.27 2192.07H634.28Z" fill="#6B6764"/>
<path d="M665.18 1746.31C676.99 1746.52 706.79 1747.51 732.97 1751.98C734.01 1752.16 735.07 1752.18 736.11 1752.01C767.45 1746.75 774.53 1721.53 765.66 1698.52C765.48 1698.06 765.27 1697.6 765.03 1697.17C754.29 1678.35 718.73 1670.48 686.1 1678.11C658.57 1685.19 646.2 1719.69 656.6 1740.89C658.2 1744.16 661.53 1746.24 665.17 1746.31H665.18Z" fill="#FEAD6A"/>
<path d="M645.82 1868.39H699.89C702.65 1868.39 705.41 1868.2 708.14 1867.78C735.18 1863.63 747.44 1848.02 740.96 1814.82C739.35 1808.19 733.41 1803.44 727.56 1800.27C721.71 1797.1 714.74 1795.01 707.85 1794.25C696.99 1793.05 674.1 1791.38 650.54 1795.1C628.68 1799.39 616.68 1824.24 620.97 1846.1C625.68 1867.96 645.83 1868.39 645.83 1868.39H645.82Z" fill="#FEAD6A"/>
<path d="M624.39 1981.96C624.39 1981.96 649.68 1984.53 669.82 1976.82C684.51 1971.2 698.06 1948.25 697.84 1930.26C697.72 1920.32 689.99 1912.02 680.12 1910.89C667.94 1909.51 653.85 1911.45 640.25 1913.39C622.68 1915.96 599.54 1933.1 602.96 1959.68C606.82 1981.54 624.39 1981.97 624.39 1981.97V1981.96Z" fill="#FEAD6A"/>
<path d="M780.39 1508.6C780.39 1508.6 959.64 1507.1 1090.14 1611.89V1581.63C1090.14 1576.09 1087.68 1570.84 1083.42 1567.29C1070.04 1556.15 1035.59 1531.16 970.57 1505.83C891.61 1474.57 834.06 1473.44 816.28 1474.01C808.7 1474.25 801.29 1476.57 795.12 1480.97C788.2 1485.91 781.36 1494.36 780.39 1508.61V1508.6Z" fill="#A7A59C"/>
<path d="M1083.42 1567.28C1073.67 1559.16 1052.73 1543.7 1016.96 1526.11L1012.08 1562.95C1038.82 1575.92 1065.36 1591.98 1090.14 1611.88V1581.62C1090.14 1576.08 1087.68 1570.83 1083.42 1567.28Z" fill="#8A8886"/>
<path d="M828.65 1437.05C856.6 1440.45 978.32 1458.52 1087.24 1525.43C1091.69 1528.17 1097.52 1525.41 1098.12 1520.22C1098.62 1515.97 1098.93 1510.44 1098.66 1503.59C1098.58 1501.51 1097.59 1499.57 1095.96 1498.28C1063.6 1472.61 958.49 1416.61 833.3 1412.15C831.25 1412.08 829.26 1412.89 827.85 1414.37C823.65 1418.76 822.53 1425.02 822.36 1429.75C822.23 1433.44 824.98 1436.6 828.65 1437.05Z" fill="#A7A59C"/>
<path d="M1095.97 1498.28C1088.38 1492.26 1076.79 1484.57 1061.87 1476.27C1059.24 1486.81 1056.45 1498.09 1054.36 1506.84C1065.38 1512.58 1076.37 1518.76 1087.24 1525.44C1091.69 1528.18 1097.52 1525.42 1098.12 1520.23C1098.62 1515.98 1098.93 1510.45 1098.66 1503.6C1098.58 1501.52 1097.59 1499.58 1095.96 1498.29L1095.97 1498.28Z" fill="#8A8886"/>
<path d="M772.46 1547.93C772.46 1547.93 944.75 1548.79 1082.96 1650.36L1054.35 1762.22C1054.35 1762.22 971.1 1785.36 965.32 1871.51C964.03 1907.51 992.69 1930.65 1014.04 1934.51L942.18 2179.44C942.18 2179.44 848.32 2092.01 618.82 2079.15L629.75 2027.08C629.75 2027.08 775.68 2023.22 739.04 1900.44C739.04 1900.44 823.25 1868.3 776.33 1784.73C808.47 1763.52 859.26 1669.66 748.69 1632.37L772.48 1547.94L772.46 1547.93Z" fill="#E66A00"/>
<path d="M789.83 1822.21C791.56 1834.74 789.97 1845.59 786.44 1854.87L850.89 1875.99L757.68 2053.42L958.25 1856.06L883.68 1817.49L1006.47 1685.7L917.11 1649.06L789.83 1822.21Z" fill="#FFAE16"/>
<path d="M999.36 1795.62C1024.54 1770.5 1054.35 1762.21 1054.35 1762.21L1082.96 1650.35C1066 1637.89 1048.53 1626.94 1030.92 1617.33L999.36 1795.62Z" fill="#C75802"/>
<path d="M1014.04 1934.5C997.37 1931.49 976.25 1916.72 968.4 1893.26L888.99 2144.94C925.49 2163.88 942.17 2179.42 942.17 2179.42L1014.03 1934.49L1014.04 1934.5Z" fill="#C75802"/>
<path d="M1195.67 2828.38L1443.83 2843.96L1282.79 2665.53L1195.67 2828.38Z" fill="#4E4C51"/>
<path d="M1821.81 2825.66L1690.55 2351.97C1686.87 2338.69 1674.98 2329.34 1661.2 2328.9L876.33 2303.69C869.06 2303.5 862.03 2306.32 856.91 2311.48L840.52 2328C835.32 2333.24 833.48 2340.93 835.72 2347.96L971.89 2773.72C979.88 2798.71 1002.38 2816.24 1028.57 2817.89L1162.87 2826.32L1227.93 2611.53L1130.22 2530.96L1204.79 2427.25C1204.79 2427.25 1210.79 2387.82 1187.22 2347.54C1212.93 2335.97 1218.93 2344.97 1218.93 2347.54C1218.93 2350.11 1246.36 2405.4 1246.36 2405.4C1246.36 2405.4 1256.22 2424.26 1248.5 2443.54C1240.78 2462.82 1213.79 2521.97 1213.79 2521.97L1340.22 2638.97C1340.22 2638.97 1472.22 2562.68 1470.93 2564.83C1469.64 2566.98 1394.64 2683.12 1394.64 2683.12L1488.27 2846.77L1794.61 2866.01C1794.61 2866.01 1823.42 2867.81 1823.6 2838.4C1823.63 2834.1 1822.96 2829.82 1821.81 2825.67V2825.66Z" fill="#4E4C51"/>
<path d="M1823.6 2838.39C1823.63 2834.09 1822.96 2829.81 1821.81 2825.66L1690.55 2351.97C1686.87 2338.69 1674.98 2329.34 1661.2 2328.9L876.33 2303.69C869.06 2303.5 862.03 2306.32 856.91 2311.48L840.52 2328C837.01 2331.54 835.04 2336.19 834.81 2341.01L1652.32 2371.75L1794.61 2866C1794.61 2866 1823.42 2867.8 1823.6 2838.39Z" fill="#6E6C6A"/>
<path d="M1841.21 2665.1L1854.71 2710.1H2062.36L1871.43 2778.24L1888.78 2874.67L2255.85 2749.32V2680.53L1841.21 2665.1Z" fill="#706E69"/>
<path d="M1888.78 2874.67L2255.85 2749.32V2680.53L1879.21 2821.47L1888.78 2874.67Z" fill="#4C474B"/>
<path d="M649.36 3245.68C634.41 3231.71 626.95 3213.47 626.95 3190.98V3014.13C626.95 2991.65 634.42 2973.42 649.36 2959.44C664.3 2945.47 683.79 2938.47 707.83 2938.47C731.87 2938.47 751.36 2945.46 766.3 2959.44C781.24 2973.42 788.71 2991.65 788.71 3014.13V3051.51H738.04V3014.13C738.04 3005.01 735.28 2997.72 729.76 2992.25C724.23 2986.78 717.09 2984.05 708.32 2984.05C699.55 2984.05 692.4 2986.78 686.88 2992.25C681.35 2997.72 678.6 3005.01 678.6 3014.13V3190.98C678.6 3200.1 681.36 3207.39 686.88 3212.86C692.4 3218.33 699.55 3221.06 708.32 3221.06C717.09 3221.06 724.23 3218.33 729.76 3212.86C735.28 3207.39 738.04 3200.1 738.04 3190.98V3145.4H788.71V3190.98C788.71 3213.47 781.23 3231.7 766.3 3245.68C751.36 3259.66 731.86 3266.65 707.83 3266.65C683.8 3266.65 664.3 3259.66 649.36 3245.68Z" fill="#F6EDD9"/>
<path d="M951.95 3262.09L914.43 3130.37H887.63V3262.09H835.98V2943.04H916.87C941.55 2943.04 961.21 2949.96 975.83 2963.78C990.45 2977.61 997.76 2996.07 997.76 3019.16V3054.26C997.76 3068.84 994.67 3081.76 988.5 3093C982.33 3104.25 973.55 3113.05 962.19 3119.44L1005.56 3262.1H951.96L951.95 3262.09ZM887.63 3084.79H914.43C924.49 3084.79 932.29 3082.21 937.82 3077.04C943.34 3071.88 946.1 3064.58 946.1 3055.16V3018.24C946.1 3008.82 943.34 3001.53 937.82 2996.36C932.29 2991.2 924.5 2988.61 914.43 2988.61H887.63V3084.78V3084.79Z" fill="#F6EDD9"/>
<path d="M1149.78 3191.45H1094.23L1083.02 3262.1H1031.37L1087.89 2943.05H1157.08L1213.6 3262.1H1160.98L1149.77 3191.45H1149.78ZM1142.96 3144.95L1122.01 3011.4L1101.06 3144.95H1142.96Z" fill="#F6EDD9"/>
<path d="M1271.11 3245.68C1256.16 3231.71 1248.7 3213.47 1248.7 3190.98V3014.13C1248.7 2991.65 1256.17 2973.42 1271.11 2959.44C1286.05 2945.47 1305.54 2938.47 1329.58 2938.47C1353.62 2938.47 1373.11 2945.46 1388.05 2959.44C1402.99 2973.42 1410.46 2991.65 1410.46 3014.13V3051.51H1359.79V3014.13C1359.79 3005.01 1357.03 2997.72 1351.51 2992.25C1345.98 2986.78 1338.84 2984.05 1330.07 2984.05C1321.3 2984.05 1314.15 2986.78 1308.63 2992.25C1303.1 2997.72 1300.35 3005.01 1300.35 3014.13V3190.98C1300.35 3200.1 1303.11 3207.39 1308.63 3212.86C1314.15 3218.33 1321.3 3221.06 1330.07 3221.06C1338.84 3221.06 1345.98 3218.33 1351.51 3212.86C1357.03 3207.39 1359.79 3200.1 1359.79 3190.98V3145.4H1410.46V3190.98C1410.46 3213.47 1402.98 3231.7 1388.05 3245.68C1373.11 3259.66 1353.61 3266.65 1329.58 3266.65C1305.55 3266.65 1286.05 3259.66 1271.11 3245.68Z" fill="#F6EDD9"/>
<path d="M1528.87 3130.82L1509.38 3165.92V3262.09H1457.73V2943.04H1509.38V3072.49L1577.6 2943.04H1633.15L1560.55 3078.41L1638.51 3262.09H1582.96L1528.87 3130.82Z" fill="#F6EDD9"/>
<path d="M1827.15 3125.75C1833.8 3136.39 1837.14 3149.3 1837.14 3164.49V3190.47C1837.14 3213.57 1829.83 3232.03 1815.21 3245.85C1800.59 3259.68 1780.93 3266.59 1756.25 3266.59H1670V2947.54H1751.86C1776.54 2947.54 1796.2 2954.46 1810.82 2968.28C1825.44 2982.11 1832.75 3000.57 1832.75 3023.66V3040.52C1832.75 3069.09 1821.22 3089.45 1798.15 3101.6C1810.82 3107.07 1820.48 3115.12 1827.14 3125.76L1827.15 3125.75ZM1721.66 2993.12V3079.72H1744.56C1756.9 3079.72 1766.08 3076.91 1772.09 3071.29C1778.1 3065.67 1781.1 3057.09 1781.1 3045.54V3022.75C1781.1 3013.33 1778.34 3006.04 1772.82 3000.87C1767.29 2995.71 1759.5 2993.12 1749.43 2993.12H1721.66ZM1785.49 3159.48C1785.49 3147.94 1782.48 3139.35 1776.48 3133.73C1770.47 3128.11 1761.29 3125.3 1748.95 3125.3H1721.66V3221.02H1753.82C1763.88 3221.02 1771.68 3218.44 1777.21 3213.27C1782.73 3208.11 1785.49 3200.81 1785.49 3191.39V3159.48Z" fill="#F6EDD9"/>
<path d="M1902.43 3249.96C1887.16 3235.83 1879.53 3217.22 1879.53 3194.13V3020.02C1879.53 2996.93 1887.16 2978.32 1902.43 2964.19C1917.69 2950.06 1937.67 2943 1962.36 2943C1987.05 2943 2007.02 2950.06 2022.29 2964.19C2037.55 2978.32 2045.19 2996.94 2045.19 3020.02V3194.13C2045.19 3217.23 2037.55 3235.84 2022.29 3249.96C2007.02 3264.09 1987.04 3271.15 1962.36 3271.15C1937.68 3271.15 1917.69 3264.09 1902.43 3249.96ZM1985.26 3217.37C1990.78 3211.9 1993.54 3204.15 1993.54 3194.12V3020.01C1993.54 3009.98 1990.78 3002.23 1985.26 2996.76C1979.73 2991.29 1972.1 2988.56 1962.36 2988.56C1952.62 2988.56 1944.98 2991.29 1939.46 2996.76C1933.93 3002.23 1931.18 3009.98 1931.18 3020.01V3194.12C1931.18 3204.15 1933.94 3211.9 1939.46 3217.37C1944.98 3222.84 1952.62 3225.57 1962.36 3225.57C1972.1 3225.57 1979.73 3222.84 1985.26 3217.37Z" fill="#F6EDD9"/>
<path d="M2198.68 3195.95H2143.13L2131.92 3266.6H2080.27L2136.79 2947.55H2205.98L2262.5 3266.6H2209.88L2198.67 3195.95H2198.68ZM2191.86 3149.45L2170.91 3015.9L2149.96 3149.45H2191.86Z" fill="#F6EDD9"/>
<path d="M2418.43 3266.59L2380.91 3134.87H2354.11V3266.59H2302.46V2947.54H2383.35C2408.03 2947.54 2427.69 2954.46 2442.31 2968.28C2456.93 2982.11 2464.24 3000.57 2464.24 3023.66V3058.76C2464.24 3073.34 2461.15 3086.26 2454.98 3097.5C2448.81 3108.75 2440.03 3117.55 2428.67 3123.94L2472.04 3266.6H2418.44L2418.43 3266.59ZM2354.12 3089.29H2380.92C2390.99 3089.29 2398.78 3086.71 2404.31 3081.54C2409.83 3076.38 2412.59 3069.08 2412.59 3059.66V3022.74C2412.59 3013.32 2409.83 3006.03 2404.31 3000.86C2398.78 2995.7 2390.99 2993.11 2380.92 2993.11H2354.12V3089.28V3089.29Z" fill="#F6EDD9"/>
<path d="M2514.42 2947.54H2595.31C2619.99 2947.54 2639.65 2954.46 2654.27 2968.28C2668.89 2982.11 2676.2 3000.57 2676.2 3023.66V3190.48C2676.2 3213.58 2668.89 3232.04 2654.27 3245.86C2639.65 3259.69 2619.99 3266.6 2595.31 3266.6H2514.42V2947.55V2947.54ZM2592.87 3221.01C2602.94 3221.01 2610.73 3218.43 2616.26 3213.26C2621.78 3208.1 2624.54 3200.8 2624.54 3191.38V3022.74C2624.54 3013.32 2621.78 3006.03 2616.26 3000.86C2610.73 2995.7 2602.94 2993.11 2592.87 2993.11H2566.07V3221.01H2592.87Z" fill="#F6EDD9"/>
<path d="M2817.82 2943.04H2898.71C2923.39 2943.04 2943.05 2949.96 2957.67 2963.78C2972.29 2977.61 2979.6 2996.07 2979.6 3019.16V3185.98C2979.6 3209.08 2972.29 3227.54 2957.67 3241.36C2943.05 3255.19 2923.39 3262.1 2898.71 3262.1H2817.82V2943.05V2943.04ZM2896.27 3216.51C2906.34 3216.51 2914.13 3213.93 2919.66 3208.76C2925.18 3203.6 2927.94 3196.3 2927.94 3186.88V3018.24C2927.94 3008.82 2925.18 3001.53 2919.66 2996.36C2914.13 2991.2 2906.34 2988.61 2896.27 2988.61H2869.47V3216.51H2896.27Z" fill="#F6EDD9"/>
<path d="M3027.23 2943.04H3173.9V2988.62H3078.88V3077.5H3154.41V3123.08H3078.88V3216.52H3173.9V3262.1H3027.23V2943.05V2943.04Z" fill="#F6EDD9"/>
<path d="M3381.8 2943.04L3325.28 3262.09H3256.09L3199.57 2943.04H3252.19L3291.17 3193.73L3330.15 2943.04H3381.8Z" fill="#F6EDD9"/>
<path d="M2741.07 3262.1C2759.67 3262.1 2774.74 3247.03 2774.74 3228.43C2774.74 3209.83 2759.67 3194.76 2741.07 3194.76C2722.47 3194.76 2707.4 3209.83 2707.4 3228.43C2707.4 3247.03 2722.47 3262.1 2741.07 3262.1Z" fill="#F6EDD9"/>
</svg>
