<?xml version="1.0" encoding="UTF-8"?>
<svg id="Layer_1" xmlns="http://www.w3.org/2000/svg" version="1.1" viewBox="0 0 4000 4000">
  <defs>
    <style>
      .st0 {
        fill: #88827e;
      }

      .st1 {
        fill: #c95701;
      }

      .st2 {
        fill: #915025;
      }

      .st3 {
        fill: #c75802;
      }

      .st4 {
        fill: #6b6764;
      }

      .st5 {
        fill: #743d20;
      }

      .st6 {
        fill: #e66a00;
      }

      .st7 {
        fill: #a7a59c;
      }

      .st8 {
        fill: #8a8886;
      }

      .st9 {
        fill: #726d6a;
      }

      .st10 {
        fill: #4c474b;
      }

      .st11 {
        fill: #6e6c6a;
      }

      .st12 {
        fill: #426a3a;
      }

      .st13 {
        fill: #706e69;
      }

      .st14 {
        fill: #f0964b;
      }

      .st15 {
        fill: #75716e;
      }

      .st16 {
        fill: #a6a19a;
      }

      .st17 {
        fill: #a7a29e;
      }

      .st18 {
        fill: #a6a29a;
      }

      .st19 {
        fill: #4e4c51;
      }

      .st20 {
        fill: #ee954c;
      }

      .st21 {
        fill: #fead6a;
      }

      .st22 {
        fill: #ffae16;
      }

      .st23 {
        fill: #f6edd9;
      }

      .st24 {
        fill: #827e79;
      }

      .st25 {
        fill: #ee6c00;
      }

      .st26 {
        fill: #6e6966;
      }

      .st27 {
        fill: #f5ecdd;
      }

      .st28 {
        fill: #bc3721;
      }

      .st29 {
        fill: #feb06b;
      }

      .st30 {
        fill: #ee934a;
      }
    </style>
  </defs>
  <path d="M766.61,1446.45s-1.93-81,78.11-81,259.39,57.86,297.96,122.46c16.39,31.82-1.93,61.71-10.61,69.43,14.46,27,10.61,54.96.96,94.5l-24.11,98.36s89.68,25.07,84.86,144.64c-10.61,94.5-65.57,172.61-65.57,172.61,0,0,80.04,77.14,123.43,156.21,57.86-49.18,184.18-159.11,250.71-173.57-11.57-60.75,31.82-103.18,31.82-103.18l-78.11-224.68s-88.71-117.64-73.29-243c-71.36-54.96-128.25-150.43-93.54-280.61,20.25-94.5,93.54-143.68,138.86-172.61,8.68-44.36-46.29-111.86-217.93-59.79,15.43-78.11,94.5-183.21,197.68-223.71-43.39-46.29-196.71-65.57-196.71-65.57,0,0,105.11-125.36,346.18-109.93,0,0-23.14-54-140.79-113.79,90.64-65.57,452.25-55.93,604.61,78.11.96-58.82-71.36-162-71.36-162,0,0,202.5-5.79,348.11,207.32,54-81.96,26.04-185.14,26.04-185.14,0,0,147.54,66.54,143.68,228.54,30.86-31.82,194.79-62.68,264.21-2.89-36.64,6.75-125.36,105.11-125.36,105.11,0,0,149.46,42.43,191.89,209.25-69.43-25.07-148.5-20.25-148.5-20.25,0,0,83.89,112.82,78.11,241.07-28.93-36.64-93.54-40.5-93.54-40.5,0,0,5.79,71.36-12.54,149.46,37.61,15.43,111.86,73.29,64.61,232.39-45.32,135-142.71,225.64-246.86,204.43l-15.43,40.5s226.61-.96,189,223.71c0,0,59.79,21.21,88.71,49.18l50.14-198.64s-90.64-50.14-54-170.68c26.04-86.79,115.71-75.21,115.71-75.21l58.82-246.86s16.39-46.29,40.5-53.04c9.64-52.07,15.43-83.89,84.86-93.54,69.43-7.71,278.68,33.73,321.11,122.94,13.5,37.13-13.5,57.38-13.5,57.38,0,0,24.11,28.93,1.93,108.96-22.18,80.04-45.32,181.29-45.32,181.29,0,0,126.32,61.71,31.82,183.21,30.86,52.07-.96,112.82-29.89,136.93,7.71,55.93-18.32,137.89-77.14,208.29,15.43,40.5,3.86,166.82-74.25,303.75-79.07,136.93-196.71,168.75-337.5,102.21-102.21-56.89-150.43-91.61-187.07-123.43l6.75,298.93,728.03,4.82s155.25,3.86,172.61,178.39v296.04s3.86,170.68-203.46,184.18H655.71s-158.14-22.18-165.86-183.21v-315.32s5.79-137.89,165.86-164.89l251.68.96-116.68-367.39s-15.43-50.14-6.75-66.54c0,0-176.46-36.64-211.18-119.57-26.04-55.93-2.89-114.75,9.64-180.32-45.32-49.18-46.29-95.46,4.82-137.89-29.89-32.79-20.25-88.71,24.11-125.36-21.21-43.39,9.64-129.21,88.71-128.25l26.04-111.86s6.75-56.89,40.5-71.36Z"/>
  <g>
    <g>
      <g>
        <g>
          <path class="st25" d="M956.89,1250.7c-2.59-1.61-63.32-33.75-80.04-92.89-11.57-40.5,45.64-63.64,70.71-12.86s28.24,117.55,9.32,105.75Z"/>
          <path class="st25" d="M1065.91,1341.81c2.06-.2,4.05-.87,5.89-1.82,10.22-5.27,54.89-30.78,62.85-77.4,5.14-32.79-39.21-43.07-64.93,0-20.15,30.54-26.38,81.38-3.81,79.22Z"/>
        </g>
        <g>
          <g>
            <g>
              <g>
                <g>
                  <g>
                    <path class="st5" d="M1470.21,914.16s69.75-101.57,173.89-135.32c0,0-45.32-38.57-79.07-53.04,71.36-20.25,232.39,34.71,320.14,102.21,76.18-46.29,262.29-123.43,445.5.96,132.11,98.36,210.21,308.57,210.21,308.57,0,0,11.57-31.82,0-136.93,74.25,11.57,97.39,33.75,97.39,33.75,0,0-9.64-67.5-109.93-158.14,45.32-26.04,168.75-25.07,168.75-25.07,0,0-68.46-79.07-201.54-84.86,35.68-54.96,109.93-128.25,109.93-128.25,0,0-109.41,16.04-208.29,93.54,28.93-75.21,13.5-169.71-18.32-213.11-12.54,82.93-96.43,173.57-96.43,173.57,0,0-56.89-170.68-216.96-228.54,24.11,59.79,26.68,154.29,18.16,214.07-75.05-78.11-221.14-227.57-511.87-195.75,53.52,39.54,148.02,184.18,148.02,184.18,0,0-164.89-81-351.96-24.11,0,0,133.07,68.46,169.71,132.11-50.14-6.75-149.46,23.14-216,101.25,42.43-5.79,90,4.5,148.66,38.89Z"/>
                    <path class="st2" d="M1367.84,641.91s18.25,9.39,43.08,24.44c70.56-9.07,195.65-19.86,308.88-.33,0,0-164.89-81-351.96-24.11Z"/>
                    <path class="st2" d="M1571.78,481.84s323.2,43.39,511.87,195.75c-75.05-78.11-221.14-227.57-511.87-195.75Z"/>
                    <path class="st2" d="M2065.5,463.52c5.99,14.86,10.65,31.87,14.14,49.96,41.43,22.55,123.93,76.12,202.82,178.58,0,0-56.89-170.68-216.96-228.54Z"/>
                  </g>
                  <path class="st29" d="M1499,994s163.29-25.71,239.14,147.86c0,0,21.32-25.61,31.61-30.32,7.71,21.86,8.14,51.86,8.14,51.86,0,0,55.71-26.14,111,6,27-60.86,114.86-190.5,287.46-173.14,110.89,21.21,162.96,97.39,196.71,206.36h48.21s-5.25-90.11-48.54-146.25c27.86.86,62.14,30,62.14,30,0,0-33-159-202.07-231-135-51.43-265.5-8.36-352.29,62.36-66.21-68.79-185.79-142.71-306-27-56.57,51.43-75.54,103.29-75.54,103.29Z"/>
                  <path class="st20" d="M2393.96,992.5c-30.32-12.78-76.99-29.83-111.5-30.43,40.41,50.8,62.07,108.09,68.95,181.78,8.08,18.29,15.21,37.92,21.66,58.76h48.21s-5.25-90.11-48.54-146.25c27.86.86,62.14,30,62.14,30,0,0-8.86-42.7-40.93-93.86Z"/>
                  <path class="st9" d="M1681.25,1359.35c-4.69,2.24,59.79-165.86-72.32-244.93-134.04-76.18-251.68,49.18-249.75,146.57s52.07,175.5,153.32,189c80.04,3.86,120.54-35.68,120.54-35.68,0,0,.64,23.79-12.86,39.21-39.86,21.21-185.79,74.57-273.21-92.57-28.93-56.57-43.07-173.57,54.64-259.71,43.07-41.14,185.79-99,280.93,34.07,46.29,77.14,57.21,196.07-1.29,224.04Z"/>
                  <path class="st27" d="M1530.15,1129.85c-73.62,0-133.29,63.68-133.29,142.23s59.68,142.23,133.29,142.23,133.29-63.68,133.29-142.23-59.68-142.23-133.29-142.23ZM1545.78,1324.35c-24.02,0-43.5-19.48-43.5-43.5s19.48-43.5,43.5-43.5,43.5,19.48,43.5,43.5-19.48,43.5-43.5,43.5Z"/>
                  <path class="st9" d="M2165.39,1060.02c-36.82-7.54-75.02-6.26-110.76,5.35-48.97,15.91-83.56,46.65-110.56,85.7,0,0-58.5,78.43-34.07,189.64,25.71,84.21,88.71,176.14,244.93,160.07,82.29-13.5,160.07-86.14,178.71-193.5,11.57-87.43-27.55-218.46-168.25-247.27ZM2115.71,1474.55c-101.2,0-183.25-84.65-183.25-189.08s82.04-189.08,183.25-189.08,183.25,84.65,183.25,189.08-82.04,189.08-183.25,189.08Z"/>
                  <path class="st27" d="M2115.71,1134.74c-83.25,0-150.73,68.1-150.73,152.11s67.49,152.11,150.73,152.11,150.73-68.1,150.73-152.11-67.49-152.11-150.73-152.11ZM2106.82,1338.07c-24.68,0-44.68-20-44.68-44.68s20-44.68,44.68-44.68,44.68,20,44.68,44.68-20,44.68-44.68,44.68Z"/>
                  <path class="st9" d="M1760.86,1252.64v-33.86s47.57-39,111.86,0l-6.86,33.86s-44.57-33.43-105,0Z"/>
                  <path class="st29" d="M1910.43,1450s-33.43-37.71-45.43-114.86c-12.86-55.71-47.14-69.86-90.43-34.29-25.29,19.29-40.29,72.43-30,109.71-37.71-10.71-77.14-1.71-71.57,59.57,7.29,52.29,68.57,90.43,139.71,73.29,71.14-19.71,84.86-56.57,97.71-93.43Z"/>
                  <path class="st30" d="M1891.89,1420.87c-12.81,41.71-37,82.58-82.61,92.13-80.21,14.19-120.51-28.02-136.8-52.79.03,3.15.2,6.45.52,9.93,7.29,52.29,68.57,90.43,139.71,73.29,71.14-19.71,84.86-56.57,97.71-93.43,0,0-8.54-9.64-18.53-29.13Z"/>
                </g>
                <path class="st9" d="M2382.28,1286.84s3-13.63,0-30.77c0,0,12.86,0,42.43,2.57,26.56,2.31,73.71,10.71,72.86,25.71-.86,12.86-19.71,9.43-19.71,9.43l-95.57-6.94Z"/>
                <path class="st29" d="M2607.28,1320.78c-58.82-41.46-130.18,52-195.75,153.77,5.79-66.02,13.5-103.62-2.89-143.16-19.29-6.75-32.14-4.82-32.14-4.82,0,0-18,180.7-217.61,221.01-138.86,16.2-207.32-57.08-207.32-57.08,0,0-54,113.79-180.32,107.04-108-10.61-134.04-75.06-138.86-94.91-34.71,22.58-122.46,38.01-194.79,5.23-3.86,54,8.68,107.04,60.75,176.46,35.68,86.79,65.57,232.39,145.61,351,70.39,96.43,185.58,177.43,356.04,137.89,170.46-46.29,261.1-195.75,316.07-315.32,42.43-85.82,80.04-188.04,92.57-282.54,21.21,49.18,52.07,105.11,149.46,27.96,58.82-62.68,139.82-216,49.18-282.54ZM2000,2070.57c-152.57,52.07-295.29,13.5-372.43-200.57-39.54-137.89-40.5-161.04-45.32-195.75-5.79-33.75-47.25-18.32-64.61-41.46-17.36-23.14,11.57-58.82,64.61-32.79,0,0,240.11,113.79,501.43-8.68,79.07-32.79,155.25-42.55,166.82,28.39,11.57,70.93-62.25,378.54-250.5,450.86ZM2603.43,1425.89c-16.39-21.21-33.9-28.93-63.72,28.93,26.11,14.46,29.45,87.75-42.13,108,26.77-56.89,9.52-69.11-18.33-57.11-6,.86-6-8.46-6-8.46,0,0,0-55.93,71.36-116.68,44.36-20.25,70.39,0,58.82,45.32Z"/>
                <path class="st20" d="M2558.1,1603.32c58.82-62.68,139.82-216,49.18-282.54-58.82-41.46-130.18,52-195.75,153.77,5.79-66.02,13.5-103.62-2.89-143.16-19.29-6.75-32.14-4.82-32.14-4.82,0,0-4.26,42.75-31.6,91.3-8.39,96.8-33.53,296.25-105.33,465.95-95.38,214.69-261.13,317.55-473.17,262.3,62.19,33.99,139.46,48.93,233.6,27.09,170.46-46.29,261.1-195.75,316.07-315.32,42.43-85.82,80.04-188.04,92.57-282.54,21.21,49.18,52.07,105.11,149.46,27.96ZM2544.6,1380.57c44.36-20.25,70.39,0,58.82,45.32-16.39-21.21-33.9-28.93-63.72,28.93,26.11,14.46,29.45,87.75-42.13,108,26.77-56.89,9.52-69.11-18.33-57.11-6,.86-6-8.46-6-8.46,0,0,0-55.93,71.36-116.68Z"/>
                <path class="st27" d="M1639.14,1667.82s252,77.14,512.36-48.86c8.36,29.57-23.79,60.43-23.79,60.43,0,0-174.86,147.86-443.57,74.57-59.14-24.43-45-86.14-45-86.14Z"/>
                <path class="st28" d="M1895,1976.39s26.36-47.57,63-95.14c31.5-37.93,100.29-31.5,147.21-9.64,16.07,9.64,19.29,16.71-7.71,54s-126.64,133.71-249.43,101.57c-76.73-23.83-78.3-40.83-57.93-83.32,6.36-13.27,14.33-25.75,24.05-36.8,23.59-26.82,48.43-36.3,80.02-29.39,5.55,1.21,9.02,6.79,7.6,12.3-8.62,33.36-13.52,98-6.81,86.43Z"/>
              </g>
              <path class="st12" d="M973.79,2252.17c5.14-3.21,98.36-28.93,153-110.57,0,0,45,52.71,77.79,110.57h-230.79Z"/>
              <path class="st12" d="M1306.79,2252.17l371.57,10.93s-137.57-68.14-160.07-166.5c0,0-52.07,9-211.5,155.57Z"/>
              <path class="st12" d="M1560.07,2002.75s36,120.21,183.86,189c100.93,43.71,111.86,55.93,201.21,159.43,51.43-64.93,99.64-117.64,210.86-193.5s217.93-136.29,289.93-231.43c53.36-72.64,23.79-92.57-39.21-106.07,0,0-5.79-5.79,5.14-26.36,45.64-4.5,136.93,18,153.64,104.14,12.21,70.07-91.93,174.86-255.21,255.21-91.29,47.57-228.86,97.71-292.5,193.5,97.07-37.29,232.71-91.93,348.43-161.36,118.93-70.71,170.36-119.57,216.64-174.86,48.86,3.21,104.79,61.71,147.86,104.79,36,38.57,72.64,72.64,103.5,95.14-6.43,32.14-31.5,129.21-15.43,176.14,24.43-27.64,69.43-169.71,69.43-169.71,0,0,109.93,121.5,250.71,22.5,0,0-10.93,158.79-119.57,270-84.86,70.07-167.79,39.86-275.14-19.29s-187.07-142.71-225-192.86c-10.29-5.79-3.86,129.21-1.93,253.29,2.57,122.79,5.14,203.79,5.14,203.79h-216.64v-69.43s5.79-50.14-48.21-60.43l-432-14.79-88.07-316.93s95.14,50.79,148.5,63.64c-24.43-59.79-121.5-107.36-188.36-144s-168.43-108.64-137.57-209.57Z"/>
              <path class="st29" d="M1906.78,2236.1s48.86,3.86,79.71-9.43c-10.71,22.29-42.43,47.14-42.43,47.14,0,0-26.57-25.71-37.29-37.71Z"/>
            </g>
            <path class="st29" d="M2803.67,1615.21l-35.57,147s-32.56-23.12-28.72-80.71c2.07-31.04,23.69-57.56,53.95-64.78,4.63-1.1,8.3-1.51,10.34-1.51Z"/>
            <path class="st6" d="M2771.37,1949.18s112.77-17.36,275.73,60.75c-20.25-53.04-10.61-101.25,28.93-126.32-27.96-41.46,0-95.25,36.64-121.39-39.54-38.68-2.89-131.25,95.46-125.46l46.29-179.36s-119.57-107.64-343.29-84.68l-139.77,576.46Z"/>
            <path class="st1" d="M3130.06,1658.77c18.59-14.67,44.8-23.98,78.08-22.03l46.29-179.36s-21.79-19.6-64.15-40.29l-60.22,241.68Z"/>
            <polygon class="st22" points="2868.71 1899.03 3093.39 1682.07 3012.9 1640.6 3155.1 1506.57 3058.67 1461.25 2883.17 1680.14 2964.17 1710.03 2868.71 1899.03"/>
            <path class="st29" d="M3164.42,1762.21s50.46,4.39,94.61,32.68c26.96-28.94,38.51-74.31-16.21-99.47-9.71-4.46-20.04-7.48-30.61-9.03-52.23-7.63-65.35,25.65-64.18,46.79,1.29,15.43,16.39,29.04,16.39,29.04Z"/>
            <path class="st29" d="M3132.17,1881.89s56.12,15.24,87.37,33.95c4.6,2.75,10.4,2.74,14.84-.28,22.88-15.57,37.74-54.49-.21-82.1-29.81-21.68-64.27-27.07-82.13-28.36-12.3-.89-24.38,4.17-32.1,13.79-6.29,7.83-11.24,19.59-9.62,36.86,3.86,22.29,21.86,26.14,21.86,26.14Z"/>
            <path class="st14" d="M2954.32,2196.03c-1.42-1.05,94.29,26.14,141.43-24.86,34.29-36.86,33.86-65.57,38.14-90.86s22.29-51,22.29-51c0,0-69.86-18.86-73.29-63.43-2.57-32.14,23.57-47.14,68.57-31.71s67.71,26.14,66,58.71-20.14,100.71-86.14,180c-66.86,66-129.43,58.29-177,23.14Z"/>
            <path class="st29" d="M3151.46,1934.18c-45-15.43-71.14-.43-68.57,31.71,3.43,44.57,73.29,63.43,73.29,63.43,0,0,47.89,11.36,61.29-36.43,1.71-32.57-21-43.29-66-58.71Z"/>
            <path class="st17" d="M2943.92,1328.29c37.58-2.14,188.52-4.97,310.26,75.79,4.05,2.69,9.46-.21,9.46-5.07v-26.39c0-1.99-.97-3.85-2.59-4.99-19.28-13.57-144.17-95.69-311.78-72.68-2.34.32-4.28,1.99-4.98,4.25l-6.53,21.22c-1.25,4.06,1.92,8.12,6.16,7.88Z"/>
            <path class="st17" d="M2977.5,1254.67c34.16-.68,160.61,1.92,278.72,69.89,3.64,2.09,8.25,0,9.04-4.13l2.81-14.74c.44-2.33-.5-4.7-2.43-6.09-19.16-13.74-124.73-83.5-282.12-75.05-2.44.13-4.56,1.72-5.39,4.02l-6.49,17.94c-1.46,4.02,1.58,8.25,5.86,8.17Z"/>
            <path class="st24" d="M3191.61,1370.32c21.23,9.2,42.3,20.32,62.57,33.76,4.05,2.69,9.46-.21,9.46-5.07v-26.39c0-1.99-.97-3.85-2.59-4.99-7.41-5.21-30.44-20.56-65.48-36.16-1.44,13.93-2.81,27.35-3.96,38.85Z"/>
            <path class="st24" d="M3199.18,1296.66c18.95,7.79,38.1,17,57.04,27.9,3.64,2.09,8.25,0,9.04-4.13l2.81-14.74c.44-2.33-.5-4.7-2.43-6.09-7.73-5.54-29.51-20.19-63.07-35.15-1.02,9.71-2.18,20.72-3.38,32.21Z"/>
            <path class="st16" d="M2755.78,2034.78l6.43-43.71s208.36-14.14,323.72,94.5l-10.64,42.43s-81.64-100.93-319.5-93.21Z"/>
            <path class="st0" d="M3013.73,2083.03c43.59,22.78,61.55,44.97,61.55,44.97l10.64-42.43c-18.17-17.11-38.64-31.17-60.25-42.73-4.05,13.7-8.71,29.34-11.95,40.18Z"/>
            <path class="st26" d="M2770.64,2074.56c-4.49.66-6.09,6.3-2.64,9.24,17.32,14.72,64.6,47.78,157.49,67.34,122.14,25.71,129.86,9,101.57-14.14-27.38-22.4-148.96-78.15-256.42-62.43Z"/>
          </g>
          <path class="st14" d="M996.5,2179.42s57.21-16.07,77.79-59.79c1.93-34.07,0-54.64,0-54.64,0,0,64.29-79.07,68.14-158.79s-27-118.29-72.96-100.29c-35.68,15.43-62.68,33.43-53.68,75.21,7.71,28.93,50.79,19.29,82.93-5.79,21.86-7.07,1.61,52.07-29.09,62.36-6.91,6.43-15.27,9-51.27,155.57-14.14,43.71-21.86,86.14-21.86,86.14Z"/>
          <path class="st29" d="M1069.46,1805.93c-35.68,15.43-62.68,33.43-53.68,75.21,7.71,28.93,50.79,19.29,82.93-5.79,21.86-7.07,1.61,52.07-29.09,62.36-3.86,3.59-8.17,5.99-17.48,32.86,15.18,8.87,40.72,16.07,75.96-.34,7.61-20.2,13.25-42.08,14.32-64.02,3.86-79.71-27-118.29-72.96-100.29Z"/>
          <path class="st18" d="M600.93,2154.46s-.86-25.29,9.86-39c45-1.29,212.36,21.21,313.93,102.86,0,0-5.79,25.71-16.71,36-30.86-25.07-114-87.86-307.07-99.86Z"/>
          <path class="st15" d="M875.29,2230.55c14.56,9.31,25.19,17.66,32.71,23.77,10.93-10.29,16.71-36,16.71-36-10.63-8.54-21.99-16.43-33.84-23.72-5.15,11.84-10.96,25.23-15.58,35.96Z"/>
          <path class="st4" d="M634.28,2192.07c15.9.96,120.65,9.05,206.42,60.24,6.5,3.88,7.2,13.05,1.32,17.83-5.37,4.37-11.96,7.1-15.56,8.38-1.67.59-3.44.78-5.19.53-18.52-2.64-134.5-21.04-192.51-74.5-.27-.25-.53-.51-.78-.78-5.47-6.17-1.84-9.34,1.24-10.79,1.57-.74,3.32-1.01,5.05-.91Z"/>
          <path class="st21" d="M665.18,1746.31c11.81.21,41.61,1.2,67.79,5.67,1.04.18,2.1.2,3.14.03,31.34-5.26,38.42-30.48,29.55-53.49-.18-.46-.39-.92-.63-1.35-10.74-18.82-46.3-26.69-78.93-19.06-27.53,7.08-39.9,41.58-29.5,62.78,1.6,3.27,4.93,5.35,8.57,5.42Z"/>
          <path class="st21" d="M645.82,1868.39h54.07c2.76,0,5.52-.19,8.25-.61,27.04-4.15,39.3-19.76,32.82-52.96-1.61-6.63-7.55-11.38-13.4-14.55s-12.82-5.26-19.71-6.02c-10.86-1.2-33.75-2.87-57.31.85-21.86,4.29-33.86,29.14-29.57,51,4.71,21.86,24.86,22.29,24.86,22.29Z"/>
          <path class="st21" d="M624.39,1981.96s25.29,2.57,45.43-5.14c14.69-5.62,28.24-28.57,28.02-46.56-.12-9.94-7.85-18.24-17.72-19.37-12.18-1.38-26.27.56-39.87,2.5-17.57,2.57-40.71,19.71-37.29,46.29,3.86,21.86,21.43,22.29,21.43,22.29Z"/>
          <path class="st7" d="M780.39,1508.6s179.25-1.5,309.75,103.29v-30.26c0-5.54-2.46-10.79-6.72-14.34-13.38-11.14-47.83-36.13-112.85-61.46-78.96-31.26-136.51-32.39-154.29-31.82-7.58.24-14.99,2.56-21.16,6.96-6.92,4.94-13.76,13.39-14.73,27.64Z"/>
          <path class="st8" d="M1083.42,1567.28c-9.75-8.12-30.69-23.58-66.46-41.17l-4.88,36.84c26.74,12.97,53.28,29.03,78.06,48.93v-30.26c0-5.54-2.46-10.79-6.72-14.34Z"/>
          <path class="st7" d="M828.65,1437.05c27.95,3.4,149.67,21.47,258.59,88.38,4.45,2.74,10.28-.02,10.88-5.21.5-4.25.81-9.78.54-16.63-.08-2.08-1.07-4.02-2.7-5.31-32.36-25.67-137.47-81.67-262.66-86.13-2.05-.07-4.04.74-5.45,2.22-4.2,4.39-5.32,10.65-5.49,15.38-.13,3.69,2.62,6.85,6.29,7.3Z"/>
          <path class="st8" d="M1095.97,1498.28c-7.59-6.02-19.18-13.71-34.1-22.01-2.63,10.54-5.42,21.82-7.51,30.57,11.02,5.74,22.01,11.92,32.88,18.6,4.45,2.74,10.28-.02,10.88-5.21.5-4.25.81-9.78.54-16.63-.08-2.08-1.07-4.02-2.7-5.31Z"/>
          <path class="st6" d="M772.46,1547.93s172.29.86,310.5,102.43l-28.61,111.86s-83.25,23.14-89.03,109.29c-1.29,36,27.37,59.14,48.72,63l-71.86,244.93s-93.86-87.43-323.36-100.29l10.93-52.07s145.93-3.86,109.29-126.64c0,0,84.21-32.14,37.29-115.71,32.14-21.21,82.93-115.07-27.64-152.36l23.79-84.43Z"/>
          <path class="st22" d="M789.83,1822.21c1.73,12.53.14,23.38-3.39,32.66l64.45,21.12-93.21,177.43,200.57-197.36-74.57-38.57,122.79-131.79-89.36-36.64-127.28,173.15Z"/>
          <path class="st3" d="M999.36,1795.62c25.18-25.12,54.99-33.41,54.99-33.41l28.61-111.86c-16.96-12.46-34.43-23.41-52.04-33.02l-31.56,178.29Z"/>
          <path class="st3" d="M1014.04,1934.5c-16.67-3.01-37.79-17.78-45.64-41.24l-79.41,251.68c36.5,18.94,53.18,34.48,53.18,34.48l71.86-244.93Z"/>
        </g>
      </g>
      <g>
        <polygon class="st19" points="1195.67 2828.38 1443.83 2843.96 1282.79 2665.53 1195.67 2828.38"/>
        <path class="st19" d="M1821.81,2825.66l-131.26-473.69c-3.68-13.28-15.57-22.63-29.35-23.07l-784.87-25.21c-7.27-.19-14.3,2.63-19.42,7.79l-16.39,16.52c-5.2,5.24-7.04,12.93-4.8,19.96l136.17,425.76c7.99,24.99,30.49,42.52,56.68,44.17l134.3,8.43,65.06-214.79-97.71-80.57,74.57-103.71s6-39.43-17.57-79.71c25.71-11.57,31.71-2.57,31.71,0s27.43,57.86,27.43,57.86c0,0,9.86,18.86,2.14,38.14s-34.71,78.43-34.71,78.43l126.43,117s132-76.29,130.71-74.14-76.29,118.29-76.29,118.29l93.63,163.65,306.34,19.24s28.81,1.8,28.99-27.61c.03-4.3-.64-8.58-1.79-12.73Z"/>
      </g>
      <path class="st11" d="M1823.6,2838.39c.03-4.3-.64-8.58-1.79-12.73l-131.26-473.69c-3.68-13.28-15.57-22.63-29.35-23.07l-784.87-25.21c-7.27-.19-14.3,2.63-19.42,7.79l-16.39,16.52c-3.51,3.54-5.48,8.19-5.71,13.01l817.51,30.74,142.29,494.25s28.81,1.8,28.99-27.61Z"/>
      <polygon class="st13" points="1841.21 2665.1 1854.71 2710.1 2062.36 2710.1 1871.43 2778.24 1888.78 2874.67 2255.85 2749.32 2255.85 2680.53 1841.21 2665.1"/>
      <polygon class="st10" points="1888.78 2874.67 2255.85 2749.32 2255.85 2680.53 1879.21 2821.47 1888.78 2874.67"/>
    </g>
    <g>
      <path class="st23" d="M649.36,3245.68c-14.95-13.97-22.41-32.21-22.41-54.7v-176.85c0-22.48,7.47-40.71,22.41-54.69,14.94-13.97,34.43-20.97,58.47-20.97s43.53,6.99,58.47,20.97c14.94,13.98,22.41,32.21,22.41,54.69v37.38h-50.67v-37.38c0-9.12-2.76-16.41-8.28-21.88-5.53-5.47-12.67-8.2-21.44-8.2s-15.92,2.73-21.44,8.2c-5.53,5.47-8.28,12.76-8.28,21.88v176.85c0,9.12,2.76,16.41,8.28,21.88,5.52,5.47,12.67,8.2,21.44,8.2s15.91-2.73,21.44-8.2c5.52-5.47,8.28-12.76,8.28-21.88v-45.58h50.67v45.58c0,22.49-7.48,40.72-22.41,54.7-14.94,13.98-34.44,20.97-58.47,20.97s-43.53-6.99-58.47-20.97Z"/>
      <path class="st23" d="M951.95,3262.09l-37.52-131.72h-26.8v131.72h-51.65v-319.05h80.89c24.68,0,44.34,6.92,58.96,20.74,14.62,13.83,21.93,32.29,21.93,55.38v35.1c0,14.58-3.09,27.5-9.26,38.74-6.17,11.25-14.95,20.05-26.31,26.44l43.37,142.66h-53.6ZM887.63,3084.79h26.8c10.06,0,17.86-2.58,23.39-7.75,5.52-5.16,8.28-12.46,8.28-21.88v-36.92c0-9.42-2.76-16.71-8.28-21.88-5.53-5.16-13.32-7.75-23.39-7.75h-26.8v96.17Z"/>
      <path class="st23" d="M1149.78,3191.45h-55.55l-11.21,70.65h-51.65l56.52-319.05h69.19l56.52,319.05h-52.62l-11.21-70.65ZM1142.96,3144.95l-20.95-133.55-20.95,133.55h41.9Z"/>
      <path class="st23" d="M1271.11,3245.68c-14.95-13.97-22.41-32.21-22.41-54.7v-176.85c0-22.48,7.47-40.71,22.41-54.69,14.94-13.97,34.43-20.97,58.47-20.97s43.53,6.99,58.47,20.97c14.94,13.98,22.41,32.21,22.41,54.69v37.38h-50.67v-37.38c0-9.12-2.76-16.41-8.28-21.88-5.53-5.47-12.67-8.2-21.44-8.2s-15.92,2.73-21.44,8.2c-5.53,5.47-8.28,12.76-8.28,21.88v176.85c0,9.12,2.76,16.41,8.28,21.88,5.52,5.47,12.67,8.2,21.44,8.2s15.91-2.73,21.44-8.2c5.52-5.47,8.28-12.76,8.28-21.88v-45.58h50.67v45.58c0,22.49-7.48,40.72-22.41,54.7-14.94,13.98-34.44,20.97-58.47,20.97s-43.53-6.99-58.47-20.97Z"/>
      <path class="st23" d="M1528.87,3130.82l-19.49,35.1v96.17h-51.65v-319.05h51.65v129.45l68.22-129.45h55.55l-72.6,135.37,77.96,183.68h-55.55l-54.09-131.27Z"/>
      <path class="st23" d="M1834.14,3121.25c6.65,10.64,9.99,23.55,9.99,38.74v25.98c0,23.1-7.31,41.56-21.93,55.38-14.62,13.83-34.28,20.74-58.96,20.74h-86.25v-319.05h81.86c24.68,0,44.34,6.92,58.96,20.74,14.62,13.83,21.93,32.29,21.93,55.38v16.86c0,28.57-11.53,48.93-34.6,61.08,12.67,5.47,22.33,13.52,28.99,24.16ZM1728.65,2988.62v86.6h22.9c12.34,0,21.52-2.81,27.53-8.43,6.01-5.62,9.01-14.2,9.01-25.75v-22.79c0-9.42-2.76-16.71-8.28-21.88-5.53-5.16-13.32-7.75-23.39-7.75h-27.77ZM1792.48,3154.98c0-11.54-3.01-20.13-9.01-25.75-6.01-5.62-15.19-8.43-27.53-8.43h-27.29v95.72h32.16c10.06,0,17.86-2.58,23.39-7.75,5.52-5.16,8.28-12.46,8.28-21.88v-31.91Z"/>
      <path class="st23" d="M1909.42,3245.46c-15.27-14.13-22.9-32.74-22.9-55.83v-174.11c0-23.09,7.63-41.7,22.9-55.83,15.26-14.13,35.24-21.19,59.93-21.19s44.66,7.06,59.93,21.19c15.26,14.13,22.9,32.75,22.9,55.83v174.11c0,23.1-7.64,41.71-22.9,55.83-15.27,14.13-35.25,21.19-59.93,21.19s-44.67-7.06-59.93-21.19ZM1992.25,3212.87c5.52-5.47,8.28-13.22,8.28-23.25v-174.11c0-10.03-2.76-17.78-8.28-23.25-5.53-5.47-13.16-8.2-22.9-8.2s-17.38,2.73-22.9,8.2c-5.53,5.47-8.28,13.22-8.28,23.25v174.11c0,10.03,2.76,17.78,8.28,23.25,5.52,5.47,13.16,8.2,22.9,8.2s17.37-2.73,22.9-8.2Z"/>
      <path class="st23" d="M2205.67,3191.45h-55.55l-11.21,70.65h-51.65l56.52-319.05h69.19l56.52,319.05h-52.62l-11.21-70.65ZM2198.85,3144.95l-20.95-133.55-20.95,133.55h41.9Z"/>
      <path class="st23" d="M2425.42,3262.09l-37.52-131.72h-26.8v131.72h-51.65v-319.05h80.89c24.68,0,44.34,6.92,58.96,20.74,14.62,13.83,21.93,32.29,21.93,55.38v35.1c0,14.58-3.09,27.5-9.26,38.74-6.17,11.25-14.95,20.05-26.31,26.44l43.37,142.66h-53.6ZM2361.11,3084.79h26.8c10.07,0,17.86-2.58,23.39-7.75,5.52-5.16,8.28-12.46,8.28-21.88v-36.92c0-9.42-2.76-16.71-8.28-21.88-5.53-5.16-13.32-7.75-23.39-7.75h-26.8v96.17Z"/>
      <path class="st23" d="M2521.41,2943.04h80.89c24.68,0,44.34,6.92,58.96,20.74,14.62,13.83,21.93,32.29,21.93,55.38v166.82c0,23.1-7.31,41.56-21.93,55.38-14.62,13.83-34.28,20.74-58.96,20.74h-80.89v-319.05ZM2599.86,3216.51c10.07,0,17.86-2.58,23.39-7.75,5.52-5.16,8.28-12.46,8.28-21.88v-168.64c0-9.42-2.76-16.71-8.28-21.88-5.53-5.16-13.32-7.75-23.39-7.75h-26.8v227.9h26.8Z"/>
      <path class="st23" d="M2817.82,2943.04h80.89c24.68,0,44.34,6.92,58.96,20.74,14.62,13.83,21.93,32.29,21.93,55.38v166.82c0,23.1-7.31,41.56-21.93,55.38-14.62,13.83-34.28,20.74-58.96,20.74h-80.89v-319.05ZM2896.27,3216.51c10.07,0,17.86-2.58,23.39-7.75,5.52-5.16,8.28-12.46,8.28-21.88v-168.64c0-9.42-2.76-16.71-8.28-21.88-5.53-5.16-13.32-7.75-23.39-7.75h-26.8v227.9h26.8Z"/>
      <path class="st23" d="M3027.23,2943.04h146.67v45.58h-95.02v88.88h75.53v45.58h-75.53v93.44h95.02v45.58h-146.67v-319.05Z"/>
      <path class="st23" d="M3381.8,2943.04l-56.52,319.05h-69.19l-56.52-319.05h52.62l38.98,250.69,38.98-250.69h51.65Z"/>
      <circle class="st23" cx="2741.07" cy="3228.43" r="33.67"/>
    </g>
  </g>
</svg>
