<?xml version="1.0" standalone="no"?>
<!DOCTYPE svg PUBLIC "-//W3C//DTD SVG 20010904//EN"
 "http://www.w3.org/TR/2001/REC-SVG-20010904/DTD/svg10.dtd">
<svg version="1.0" xmlns="http://www.w3.org/2000/svg"
 width="1928.000000pt" height="1928.000000pt" viewBox="0 0 1928.000000 1928.000000"
 preserveAspectRatio="xMidYMid meet">
<g transform="translate(0.000000,1928.000000) scale(0.100000,-0.100000)"
fill="#000000" stroke="none">
<path d="M818 13546 c-21 -8 -38 -11 -38 -9 0 3 -7 0 -15 -7 -8 -7 -15 -10
-15 -7 0 17 -270 -114 -278 -135 -2 -4 -8 -8 -14 -8 -27 0 -221 -183 -256
-242 -9 -15 -19 -28 -23 -28 -4 0 -12 -13 -19 -30 -7 -16 -16 -30 -20 -30 -5
0 -14 -17 -21 -37 -6 -21 -15 -40 -19 -43 -8 -6 -49 -108 -55 -138 -2 -12 -7
-26 -10 -32 -3 -5 -12 -45 -20 -87 -11 -59 -13 -137 -10 -318 5 -236 6 -270
20 -430 12 -142 15 -169 20 -210 3 -22 7 -51 9 -65 3 -27 14 -104 23 -160 3
-19 7 -46 8 -60 2 -14 7 -41 10 -60 4 -19 9 -46 11 -60 4 -26 16 -88 19 -105
2 -5 6 -27 9 -49 3 -21 8 -41 10 -45 2 -3 7 -23 10 -44 7 -47 78 -326 106
-422 12 -38 23 -79 25 -91 3 -11 32 -101 66 -200 33 -98 66 -195 72 -214 6
-19 16 -38 22 -42 5 -4 7 -8 3 -8 -6 0 40 -123 78 -207 8 -18 21 -50 30 -70 9
-21 31 -71 50 -111 19 -40 34 -75 34 -77 0 -14 193 -388 212 -412 6 -7 7 -13
3 -13 -5 0 -1 -8 8 -18 9 -10 27 -38 41 -63 13 -25 36 -66 52 -90 16 -24 29
-46 29 -49 1 -6 12 -25 151 -236 61 -94 118 -177 126 -185 8 -8 23 -29 33 -46
11 -18 23 -33 27 -33 4 0 8 -5 8 -11 0 -6 17 -32 38 -58 21 -25 63 -77 92
-115 52 -67 65 -85 103 -129 11 -12 35 -42 55 -66 189 -229 548 -586 797 -794
138 -115 165 -137 170 -137 4 0 12 -6 20 -12 7 -7 27 -24 45 -38 18 -14 37
-30 44 -35 6 -6 27 -22 46 -35 19 -13 37 -27 40 -30 3 -4 48 -35 100 -71 52
-35 97 -67 100 -70 5 -6 118 -80 135 -89 6 -3 37 -23 70 -44 198 -129 668
-382 763 -411 12 -3 22 -11 22 -16 0 -5 7 -9 15 -9 8 0 42 -13 77 -29 35 -16
81 -36 103 -46 22 -9 49 -20 60 -25 40 -17 202 -78 265 -100 36 -12 72 -25 80
-29 37 -19 448 -143 570 -171 231 -55 356 -81 445 -95 11 -2 34 -6 50 -9 17
-4 46 -9 65 -12 19 -3 46 -7 60 -10 35 -6 109 -16 145 -19 17 -1 30 -4 30 -5
0 -2 31 -6 115 -14 36 -3 85 -8 110 -11 253 -32 889 -37 1160 -11 25 3 79 7
120 10 42 4 87 8 100 11 14 2 52 6 85 10 58 5 86 9 150 20 17 3 53 8 80 11 28
3 53 8 56 10 4 2 24 6 45 9 22 3 50 7 64 10 14 3 41 8 60 11 19 3 51 9 70 14
19 5 51 11 70 14 19 3 56 12 82 19 26 8 49 13 52 10 2 -3 11 -1 18 3 7 4 19 9
28 10 8 1 24 4 35 7 98 24 154 39 175 48 14 5 36 11 49 14 26 5 27 5 206 61
66 21 122 39 125 39 3 1 13 5 23 8 9 4 25 10 35 14 9 3 19 7 22 7 11 2 107 39
137 52 17 8 36 14 42 14 6 0 19 4 29 10 9 5 58 26 107 46 80 32 127 52 229 97
27 12 36 11 98 -20 38 -18 74 -33 81 -33 7 0 17 -4 23 -9 12 -12 257 -108 409
-161 136 -47 144 -49 148 -49 1 0 29 -10 62 -21 32 -11 68 -22 80 -25 11 -3
45 -12 75 -21 57 -17 183 -52 211 -58 9 -3 33 -9 55 -15 92 -24 302 -69 355
-76 15 -2 36 -6 46 -9 10 -3 36 -7 57 -11 21 -3 48 -8 60 -11 12 -2 37 -7 56
-9 62 -7 124 -16 150 -21 14 -3 50 -8 80 -10 30 -2 65 -6 78 -9 13 -2 60 -7
105 -11 45 -3 98 -8 117 -10 195 -22 822 -22 1040 1 19 2 69 6 110 9 41 4 89
8 105 10 17 2 56 7 88 10 58 6 111 14 151 22 11 2 45 7 75 10 30 3 57 7 61 9
3 2 24 6 46 9 22 4 51 9 64 11 14 3 39 7 55 10 17 3 50 10 75 15 25 5 56 12
70 14 34 6 338 81 425 105 193 53 523 166 679 232 37 16 74 29 82 29 8 0 14 4
14 10 0 5 3 9 8 8 8 -1 21 4 92 35 151 65 439 207 555 273 44 25 92 51 108 57
15 6 27 14 27 18 0 4 15 12 33 20 17 7 34 16 37 19 3 3 34 24 70 45 36 21 85
52 110 69 25 17 47 29 49 27 2 -1 7 1 10 6 9 12 98 73 107 73 4 0 14 7 23 15
9 9 54 42 101 75 47 32 90 63 95 67 6 5 46 36 90 68 44 33 82 63 85 66 3 3 43
37 90 74 47 38 87 71 90 74 3 3 36 33 75 66 188 162 452 425 650 649 11 13 38
45 60 71 22 27 55 65 72 84 18 20 33 39 33 42 0 3 12 19 26 35 14 16 51 63 82
104 31 41 61 80 67 87 15 18 29 37 40 55 18 28 154 223 165 235 5 7 10 17 10
23 0 5 5 10 10 10 6 0 10 5 10 10 0 6 21 43 47 83 72 111 112 177 150 244 79
141 99 179 161 303 37 74 70 137 75 138 4 2 7 10 7 18 0 13 9 34 32 74 4 8 11
22 15 30 3 8 16 39 29 68 13 29 35 80 50 115 14 34 32 76 40 94 8 17 14 34 14
37 0 4 7 23 16 44 10 20 18 42 20 47 1 6 10 30 19 55 27 72 106 304 110 320 2
8 10 35 18 60 36 109 133 479 142 542 2 15 6 35 9 45 3 10 8 32 11 48 6 34 12
69 20 105 9 43 18 94 31 185 2 17 6 41 9 55 2 14 7 49 10 79 3 30 8 57 10 61
2 4 6 38 9 76 3 38 7 78 10 89 2 11 7 65 11 120 4 55 9 118 11 140 2 22 6 157
8 300 4 274 2 300 -45 445 -66 203 -210 394 -399 529 -49 35 -239 131 -259
131 -9 0 -21 4 -26 9 -10 8 -75 27 -122 36 -22 4 -23 0 -24 -53 -1 -31 -1 -60
-1 -63 2 -18 4 -348 3 -416 -1 -30 0 -384 0 -395 1 -18 -12 -362 -16 -418 -8
-114 -21 -257 -30 -310 -2 -14 -7 -50 -10 -80 -4 -30 -10 -75 -15 -100 -4 -25
-8 -52 -8 -60 0 -13 -13 -82 -28 -150 -3 -14 -7 -40 -10 -59 -2 -19 -6 -37 -9
-41 -2 -4 -7 -22 -10 -41 -3 -19 -13 -63 -21 -99 -9 -36 -17 -74 -19 -84 -22
-104 -162 -548 -205 -651 -7 -16 -15 -39 -17 -49 -2 -11 -8 -25 -14 -33 -6 -7
-8 -13 -4 -13 4 0 3 -6 -3 -12 -5 -7 -26 -53 -47 -103 -89 -216 -222 -482
-354 -705 -61 -104 -95 -158 -111 -177 -5 -7 -10 -15 -10 -18 0 -9 -62 -99
-74 -107 -6 -4 -8 -8 -4 -8 7 0 -43 -74 -75 -111 -8 -9 -16 -21 -18 -27 -2 -6
-14 -24 -27 -39 -13 -15 -64 -82 -115 -148 -50 -66 -104 -133 -118 -150 -15
-16 -37 -41 -48 -55 -100 -121 -289 -319 -439 -460 -154 -145 -193 -180 -199
-180 -3 0 -11 -6 -17 -13 -18 -23 -173 -148 -291 -235 -60 -45 -114 -86 -120
-90 -22 -18 -206 -142 -210 -142 -2 0 -36 -22 -77 -48 -40 -27 -93 -61 -118
-75 -25 -14 -70 -40 -100 -58 -154 -88 -436 -227 -620 -306 -19 -8 -44 -18
-55 -23 -64 -29 -250 -100 -275 -105 -8 -2 -33 -11 -55 -20 -22 -10 -51 -19
-64 -22 -14 -2 -29 -7 -35 -11 -6 -3 -15 -7 -21 -8 -5 -1 -32 -9 -60 -17 -27
-8 -75 -23 -105 -32 -30 -9 -63 -19 -72 -21 -30 -7 -52 -13 -85 -23 -18 -5
-33 -8 -33 -6 0 2 -18 -2 -40 -10 -22 -8 -42 -14 -45 -14 -3 -1 -15 -3 -28 -6
-12 -3 -33 -7 -47 -10 -14 -2 -47 -9 -75 -15 -27 -6 -60 -12 -73 -15 -12 -2
-30 -6 -40 -9 -17 -5 -76 -15 -122 -21 -14 -2 -41 -6 -61 -9 -20 -4 -51 -9
-70 -11 -19 -2 -52 -6 -74 -9 -93 -14 -190 -24 -290 -32 -22 -1 -40 -3 -40 -4
0 0 -47 -3 -105 -6 -264 -15 -764 -4 -945 20 -22 3 -62 8 -90 11 -27 3 -66 8
-85 11 -19 3 -50 7 -69 10 -19 2 -46 6 -60 9 -14 2 -44 7 -66 10 -22 3 -47 7
-55 8 -8 2 -33 7 -55 11 -22 4 -74 15 -115 23 -41 8 -84 17 -95 18 -11 2 -49
11 -85 20 -36 10 -69 18 -75 20 -5 1 -30 7 -55 14 -25 7 -53 15 -63 17 -40 7
-338 104 -442 143 -60 23 -117 44 -125 46 -41 11 -404 170 -437 191 -13 8 -23
12 -23 8 0 -4 -6 -2 -12 4 -7 5 -61 35 -120 66 l-108 55 -185 -94 c-101 -52
-191 -95 -200 -95 -8 0 -15 -4 -15 -10 0 -5 -8 -10 -18 -10 -10 0 -22 -3 -26
-7 -4 -5 -11 -8 -14 -9 -4 0 -29 -11 -57 -23 -27 -13 -70 -31 -95 -40 -25 -10
-54 -22 -65 -26 -11 -5 -22 -9 -25 -10 -3 -1 -16 -6 -30 -12 -14 -6 -68 -25
-120 -43 -52 -18 -101 -37 -107 -43 -7 -5 -13 -7 -13 -4 0 3 -39 -8 -87 -24
-90 -30 -328 -98 -373 -106 -14 -2 -41 -8 -60 -13 -19 -5 -46 -11 -60 -14 -14
-3 -56 -12 -93 -20 -38 -8 -87 -18 -110 -21 -23 -3 -49 -8 -57 -10 -19 -5 -69
-14 -180 -30 -25 -4 -58 -9 -73 -11 -16 -2 -49 -6 -75 -9 -26 -2 -69 -7 -97
-10 -27 -3 -81 -8 -120 -10 -38 -3 -104 -8 -145 -11 -100 -8 -539 -8 -665 0
-55 3 -128 8 -163 10 -34 2 -88 7 -120 11 -31 4 -71 9 -88 10 -36 4 -114 14
-159 21 -16 3 -46 7 -65 9 -19 2 -35 4 -35 5 0 1 -9 3 -20 5 -50 7 -101 17
-115 20 -8 2 -31 7 -50 10 -19 3 -42 8 -50 10 -8 2 -31 7 -50 10 -41 7 -344
82 -380 94 -14 5 -68 21 -120 36 -52 15 -104 31 -115 36 -11 5 -49 18 -85 30
-61 20 -101 34 -252 93 -202 79 -473 208 -680 324 -177 99 -173 96 -178 103
-3 3 -17 12 -32 20 -61 31 -388 251 -463 311 -5 5 -50 40 -100 78 -241 187
-494 421 -706 652 -91 98 -117 128 -159 178 -25 30 -47 57 -50 60 -5 5 -32 38
-85 105 -16 21 -41 52 -55 69 -14 17 -37 48 -50 68 -14 21 -28 38 -32 38 -5 0
-8 6 -8 14 0 8 -4 16 -8 18 -24 9 -392 589 -392 616 0 5 -7 15 -15 22 -9 7
-13 15 -11 18 3 3 -3 17 -13 31 -21 31 -163 320 -190 389 -11 26 -27 65 -37
87 -10 22 -18 42 -19 45 -1 3 -8 21 -17 41 -34 78 -169 461 -174 494 -1 11
-11 47 -22 80 -21 62 -87 324 -97 384 -3 19 -8 37 -10 40 -2 4 -6 26 -10 51
-4 25 -8 47 -11 51 -2 4 -6 26 -9 50 -3 24 -8 55 -11 69 -7 30 -12 70 -18 127
-3 24 -7 46 -9 50 -3 5 -8 40 -11 79 -4 39 -8 80 -10 90 -4 20 -15 140 -22
234 -7 96 -14 371 -13 475 1 55 1 118 -1 140 -3 44 -3 45 -1 160 0 44 0 89 0
100 0 11 1 46 1 78 0 32 -2 62 -5 68 -4 5 -2 9 2 9 5 0 7 17 6 38 -1 20 -2 69
-2 107 -1 195 3 185 -63 161z"/>
<path d="M1362 13542 c-4 -10 -7 -28 -5 -42 1 -14 2 -35 2 -47 1 -13 1 -33 2
-45 0 -13 0 -27 0 -33 0 -5 -1 -38 -2 -71 -1 -34 1 -66 5 -72 3 -6 2 -13 -3
-17 -5 -3 -8 -15 -5 -28 7 -33 10 -107 3 -107 -7 0 -3 -55 5 -69 4 -5 2 -12
-4 -16 -6 -4 -7 -12 -1 -24 5 -9 6 -23 1 -31 -4 -7 -5 -23 0 -34 4 -11 4 -33
-1 -48 -4 -15 -4 -30 1 -33 5 -3 5 -16 0 -30 -5 -13 -6 -27 -1 -29 4 -3 5 -26
1 -51 -4 -25 -3 -48 2 -51 4 -3 4 -13 -1 -23 -5 -9 -6 -23 -1 -31 4 -7 4 -23
0 -36 -5 -12 -6 -24 -3 -27 3 -3 7 -64 9 -134 4 -122 11 -248 14 -248 0 0 3
-22 5 -50 5 -73 19 -194 30 -265 3 -19 8 -51 11 -70 11 -80 43 -251 61 -325 4
-16 7 -32 8 -35 1 -3 5 -25 10 -50 10 -50 10 -49 17 -70 5 -14 65 -229 73
-260 4 -20 74 -231 82 -250 3 -8 7 -18 8 -22 2 -5 4 -10 5 -13 1 -3 3 -9 4
-13 0 -4 8 -26 18 -47 15 -36 19 -48 28 -80 2 -5 14 -31 27 -56 13 -26 23 -51
23 -56 0 -5 14 -37 30 -71 17 -34 30 -64 30 -67 0 -9 178 -362 200 -395 5 -8
37 -62 71 -120 34 -58 101 -163 148 -234 47 -71 91 -136 96 -145 6 -9 13 -18
16 -21 3 -3 30 -39 61 -81 48 -66 144 -186 203 -257 11 -13 28 -33 38 -45 119
-142 465 -486 573 -569 16 -12 31 -25 34 -29 3 -3 43 -37 90 -74 47 -37 87
-71 90 -74 3 -3 12 -10 21 -16 9 -5 45 -32 80 -58 72 -54 80 -60 162 -117 32
-22 62 -40 67 -40 4 0 10 -3 12 -7 3 -8 112 -77 263 -168 169 -102 639 -327
785 -376 14 -4 90 -31 170 -59 80 -28 152 -52 161 -54 9 -3 49 -14 90 -26 40
-12 84 -24 98 -27 13 -2 29 -7 35 -11 11 -6 30 -10 71 -15 11 -1 22 -4 25 -7
3 -3 34 -12 70 -19 36 -7 74 -15 85 -17 11 -3 30 -7 43 -10 43 -8 67 -13 97
-19 32 -7 44 -9 120 -20 28 -3 61 -9 75 -11 34 -7 77 -13 125 -18 22 -3 67 -8
100 -11 379 -42 940 -36 1280 15 33 5 80 11 105 14 25 4 59 9 75 12 17 4 41 8
55 9 14 2 25 4 25 5 0 1 13 3 30 5 38 5 275 55 295 63 8 3 18 5 21 4 4 -1 22
3 40 9 44 13 141 40 154 43 6 1 16 5 23 9 6 5 12 6 12 3 0 -3 19 2 43 10 23 9
47 17 52 18 43 9 307 103 380 136 22 9 51 21 65 25 14 4 39 15 55 23 17 9 35
17 40 18 6 1 30 11 55 22 25 12 49 21 54 21 5 -1 12 3 15 8 3 5 19 14 35 21
l29 13 -109 77 c-60 42 -116 83 -124 90 -8 7 -33 26 -55 43 -22 16 -47 35 -55
42 -8 7 -35 28 -60 47 -39 30 -77 62 -124 105 -6 6 -27 23 -46 39 -112 93
-381 355 -492 480 -23 27 -54 61 -68 76 -14 15 -34 38 -45 51 -32 39 -135 163
-143 174 -32 43 -78 101 -83 105 -3 3 -42 57 -87 120 -45 63 -86 120 -92 127
-5 7 -10 14 -10 17 0 8 -64 101 -72 104 -5 2 -8 8 -8 13 0 5 -17 35 -37 66
-21 32 -43 67 -49 78 -6 11 -37 65 -69 120 -89 153 -233 442 -290 580 -7 17
-20 46 -28 65 -37 84 -155 400 -162 435 -3 11 -9 31 -15 45 -19 49 -121 421
-136 495 -2 11 -13 67 -25 124 -24 122 -30 149 -34 176 -19 123 -23 160 -19
167 3 4 0 8 -6 8 -7 0 -10 6 -7 13 2 6 -2 55 -9 107 -7 52 -16 131 -19 175 -3
44 -8 97 -11 119 -4 36 -17 392 -15 426 2 20 0 59 -3 93 -1 15 0 27 3 27 3 0
6 16 6 35 0 19 -4 35 -8 35 -5 0 -5 5 -2 10 4 6 6 32 6 58 -1 45 -1 63 -1 97
0 8 0 21 -1 28 0 6 0 41 1 77 0 36 0 85 0 109 0 24 3 47 5 51 3 5 1 11 -4 15
-7 3 -7 15 -1 30 6 15 6 27 -1 30 -5 4 -7 11 -4 16 3 5 6 37 6 71 -1 35 -1 80
-1 100 1 44 -7 50 -51 38 -19 -5 -37 -9 -40 -7 -3 1 -13 -4 -22 -12 -10 -7
-17 -11 -17 -8 0 17 -270 -114 -278 -135 -2 -4 -8 -8 -14 -8 -22 0 -148 -114
-233 -211 -80 -91 -179 -290 -200 -404 -2 -11 -8 -38 -12 -60 -10 -51 -9 -409
1 -580 4 -71 9 -154 11 -183 2 -29 6 -69 10 -90 4 -20 9 -62 11 -92 5 -57 11
-105 14 -105 1 0 3 -20 6 -45 2 -25 7 -61 10 -80 3 -19 8 -48 10 -65 2 -16 9
-57 15 -90 6 -33 13 -71 16 -85 2 -14 11 -56 19 -95 8 -38 17 -81 19 -95 11
-71 145 -567 181 -670 3 -8 5 -15 4 -15 0 0 13 -38 31 -85 17 -47 35 -98 41
-115 13 -38 76 -203 87 -230 5 -11 18 -41 30 -67 12 -26 21 -50 21 -52 0 -10
64 -146 166 -351 113 -230 155 -308 167 -313 4 -2 7 -8 7 -14 0 -9 78 -147 90
-158 3 -3 14 -21 24 -40 21 -39 226 -352 235 -360 3 -3 22 -27 41 -55 19 -27
38 -51 42 -53 4 -2 8 -10 8 -18 0 -8 3 -14 8 -14 4 0 18 -17 32 -38 14 -20 27
-39 30 -42 3 -3 21 -25 40 -50 19 -25 39 -50 45 -56 5 -7 21 -26 35 -44 14
-18 30 -37 35 -44 6 -6 35 -41 65 -76 30 -36 57 -67 60 -70 26 -25 39 -47 28
-48 -7 0 -35 -3 -63 -7 -170 -21 -309 -28 -520 -28 -168 0 -371 8 -440 18 -16
2 -55 7 -86 10 -30 3 -66 7 -80 10 -13 2 -44 6 -69 9 -25 3 -56 8 -70 11 -14
3 -38 7 -55 9 -30 5 -107 20 -155 31 -14 3 -36 8 -50 11 -32 6 -158 38 -235
59 -67 18 -361 116 -415 138 -54 22 -75 30 -80 32 -81 27 -516 241 -540 265
-3 3 -25 16 -50 29 -25 14 -56 32 -70 41 -14 10 -49 32 -78 50 -30 18 -59 38
-65 44 -7 6 -24 17 -39 25 -16 8 -28 18 -28 23 0 4 -7 8 -15 8 -8 0 -15 5 -15
10 0 6 -5 10 -12 10 -6 0 -18 7 -27 15 -9 9 -56 46 -106 83 -49 37 -96 72
-103 79 -7 7 -34 29 -59 50 -87 70 -137 117 -293 273 -232 232 -413 455 -582
715 -42 66 -82 125 -88 132 -5 7 -10 14 -10 17 0 3 -22 43 -50 90 -27 47 -50
89 -50 95 0 6 -5 11 -12 11 -6 0 -9 3 -6 6 3 3 -11 35 -31 72 -50 91 -147 308
-191 427 -12 33 -29 75 -37 94 -8 18 -16 39 -17 45 -3 16 -26 87 -36 111 -4
11 -16 47 -25 80 -9 33 -19 67 -22 75 -3 8 -7 22 -8 30 -2 8 -8 30 -14 49 -6
19 -8 38 -5 42 3 5 0 9 -6 9 -7 0 -10 6 -7 14 3 8 3 17 -1 20 -3 4 -7 14 -9
24 -1 9 -14 68 -28 131 -14 63 -23 116 -21 118 2 3 0 18 -5 35 -5 17 -11 47
-14 67 -3 20 -7 46 -9 56 -2 11 -7 52 -11 90 -4 39 -9 84 -11 100 -8 51 -14
144 -19 290 -8 243 -12 298 -25 360 -7 33 -13 65 -14 70 -1 6 -4 15 -7 20 -4
6 -12 28 -19 50 -12 39 -70 165 -80 175 -3 3 -22 30 -42 61 -44 64 -153 180
-218 230 -52 40 -127 89 -136 89 -3 0 -18 8 -32 18 -35 24 -171 77 -245 96
-52 13 -58 13 -65 -2z"/>
<path d="M7037 13548 c-2 -7 0 -25 4 -40 4 -16 4 -28 -1 -28 -5 0 -5 -13 0
-30 5 -16 6 -30 2 -30 -4 0 -7 -27 -7 -60 0 -33 3 -60 7 -60 4 0 3 -13 -2 -30
-5 -17 -5 -30 0 -30 5 0 7 -6 4 -14 -8 -21 -10 -166 -2 -166 4 0 3 -13 -2 -30
-5 -17 -5 -30 0 -30 5 0 5 -13 0 -30 -5 -16 -5 -30 0 -30 4 0 6 -8 4 -17 -8
-33 -9 -153 -2 -153 4 0 3 -11 -2 -25 -6 -15 -6 -26 0 -30 7 -4 6 -13 0 -25
-6 -12 -7 -21 0 -25 6 -3 6 -15 0 -29 -5 -13 -6 -27 -3 -30 8 -8 8 -70 0 -83
-4 -6 -4 -13 0 -16 3 -4 7 -50 9 -104 2 -94 10 -208 19 -303 12 -125 23 -215
30 -250 3 -14 7 -45 10 -70 6 -48 8 -58 18 -105 10 -44 17 -86 23 -125 2 -19
7 -43 10 -52 3 -10 7 -30 10 -45 11 -59 86 -344 116 -438 18 -55 33 -102 33
-105 1 -3 4 -12 7 -20 3 -8 22 -62 43 -120 20 -58 43 -118 50 -135 7 -16 23
-55 35 -85 43 -107 144 -325 153 -331 5 -3 9 -10 8 -15 0 -14 122 -243 191
-358 118 -196 329 -503 394 -573 13 -14 24 -29 24 -32 0 -3 10 -17 23 -31 12
-14 35 -41 51 -60 190 -233 482 -523 746 -741 36 -30 71 -59 78 -66 7 -7 17
-13 20 -13 4 0 18 -10 32 -23 38 -34 192 -144 310 -221 58 -38 117 -77 132
-88 l28 -19 132 87 c113 74 420 296 454 329 6 5 30 26 53 45 23 19 60 51 81
70 21 19 73 66 116 105 151 136 341 334 484 504 25 30 50 59 55 65 6 6 28 35
50 64 21 28 43 52 48 52 4 0 6 4 3 8 -3 5 3 16 12 25 9 8 22 22 27 29 34 44
159 225 200 288 26 41 61 94 76 118 16 24 29 45 29 48 0 2 11 21 24 42 51 79
193 348 194 366 0 5 4 12 9 15 10 6 135 284 171 381 12 30 27 69 33 85 18 46
89 248 94 265 2 8 4 15 5 15 1 0 3 7 5 15 1 8 19 72 39 141 20 69 39 136 41
147 3 12 7 31 10 43 2 11 7 29 10 39 6 20 13 51 21 90 2 14 9 45 14 70 10 46
30 159 35 195 2 11 8 49 14 85 11 70 19 136 23 188 1 17 5 32 8 32 3 0 5 24 6
53 1 28 4 88 8 132 4 44 9 130 11 192 2 61 6 117 11 124 4 8 3 10 -4 5 -9 -5
-9 -1 -3 17 5 13 5 30 1 37 -5 8 -4 22 1 31 6 11 5 20 -1 24 -6 4 -7 13 -1 24
5 9 6 23 1 30 -4 8 -4 27 0 42 5 18 5 29 -1 29 -6 0 -6 6 0 18 6 11 6 24 0 34
-5 9 -6 19 -1 22 6 3 8 61 2 61 -1 0 -2 21 -3 48 -1 26 0 47 3 47 7 0 3 80 -4
87 -3 3 -1 12 5 19 7 8 7 14 -1 19 -6 4 -7 12 -1 24 5 9 6 23 1 30 -4 8 -4 27
0 42 5 18 5 29 -1 29 -6 0 -6 6 0 18 6 11 6 24 0 34 -6 10 -6 19 0 23 6 3 7
15 1 29 -4 12 -4 29 0 36 5 8 4 22 -1 31 -6 11 -5 20 1 24 6 4 6 15 0 30 -5
14 -6 25 -1 25 4 0 6 13 3 29 -3 22 -8 27 -25 25 -28 -3 -143 -39 -194 -60
-21 -9 -40 -16 -43 -16 -3 0 -9 -3 -15 -8 -5 -4 -37 -22 -70 -40 -33 -18 -73
-44 -88 -56 -16 -13 -32 -24 -36 -24 -17 0 -179 -168 -223 -230 -72 -102 -128
-221 -154 -325 -8 -33 -17 -69 -20 -80 -3 -11 -6 -57 -8 -103 -2 -46 -6 -85
-9 -88 -3 -4 -2 -17 3 -30 5 -13 6 -24 2 -24 -4 0 -7 -42 -8 -93 -1 -93 -10
-251 -18 -297 -3 -14 -7 -56 -11 -94 -3 -38 -8 -72 -9 -75 -2 -3 -6 -28 -10
-56 -3 -27 -8 -60 -10 -71 -2 -12 -7 -37 -10 -55 -6 -34 -12 -68 -20 -104 -3
-11 -12 -53 -20 -94 -9 -40 -18 -77 -21 -81 -3 -4 -7 -25 -11 -46 -3 -22 -10
-46 -14 -54 -4 -8 -8 -18 -9 -23 0 -4 -3 -17 -6 -30 -4 -13 -8 -30 -9 -38 -2
-8 -6 -21 -9 -29 -3 -8 -20 -60 -37 -115 -17 -55 -35 -108 -41 -118 -5 -9 -16
-39 -25 -65 -15 -43 -31 -84 -88 -217 -40 -94 -185 -380 -236 -465 -28 -47
-57 -94 -63 -105 -7 -11 -22 -34 -34 -52 -13 -17 -23 -34 -23 -38 0 -8 -43
-69 -52 -73 -5 -2 -8 -8 -8 -13 0 -9 -8 -21 -37 -54 -7 -7 -13 -16 -13 -20 0
-3 -5 -11 -10 -18 -6 -7 -43 -55 -82 -107 -40 -52 -75 -97 -78 -100 -3 -3 -24
-27 -45 -55 -88 -109 -360 -388 -490 -500 -38 -33 -85 -74 -104 -91 -20 -17
-43 -33 -51 -36 -41 -14 -446 367 -651 612 -157 188 -328 426 -414 575 -15 28
-31 52 -34 55 -4 3 -18 28 -33 55 -14 28 -38 73 -53 100 -46 83 -79 150 -76
154 2 2 -1 7 -6 10 -5 3 -31 56 -57 116 -64 146 -70 160 -96 230 -12 33 -26
69 -31 80 -8 17 -77 220 -80 235 -1 3 -3 10 -5 15 -20 59 -52 191 -48 197 3 4
0 8 -5 8 -6 0 -11 9 -11 21 0 12 -7 47 -14 78 -14 54 -23 94 -30 136 -2 11 -7
35 -10 53 -3 17 -8 44 -11 60 -3 15 -7 36 -9 47 -3 19 -15 110 -21 165 -4 39
-15 140 -21 195 -3 28 -7 113 -9 190 -7 217 -13 317 -24 354 -6 19 -9 37 -6
39 2 3 0 12 -5 22 -5 9 -11 28 -14 41 -7 37 -66 171 -87 198 -11 13 -19 28
-19 34 0 17 -101 139 -169 206 -117 113 -273 205 -436 257 -105 34 -122 37
-128 22z"/>
<path d="M12720 13523 c0 -21 0 -61 -1 -89 -1 -29 1 -57 5 -63 4 -6 2 -11 -4
-11 -6 0 -8 -5 -5 -10 6 -10 7 -34 4 -157 -1 -28 2 -56 5 -62 4 -5 2 -12 -3
-16 -6 -3 -7 -16 -3 -28 4 -12 6 -37 5 -54 -6 -73 -5 -131 1 -142 4 -6 2 -11
-4 -11 -6 0 -8 -5 -5 -10 6 -10 7 -34 4 -157 -1 -28 2 -56 5 -62 4 -5 2 -12
-4 -16 -7 -4 -7 -12 0 -24 5 -10 7 -20 5 -23 -3 -2 -7 -80 -10 -174 -3 -93 -8
-194 -11 -224 -3 -30 -7 -75 -9 -100 -9 -105 -13 -148 -20 -195 -5 -27 -9 -66
-10 -85 -2 -19 -4 -35 -5 -35 -1 0 -4 -15 -13 -80 -9 -58 -38 -219 -58 -315
-6 -30 -13 -62 -14 -70 -2 -8 -4 -15 -5 -15 -1 0 -3 -9 -5 -20 -3 -11 -16 -65
-30 -120 -15 -55 -28 -107 -29 -115 -2 -8 -6 -22 -9 -30 -3 -8 -18 -55 -32
-105 -38 -128 -132 -401 -155 -450 -5 -11 -25 -58 -44 -105 -19 -47 -47 -112
-62 -145 -15 -33 -28 -62 -29 -65 -4 -17 -130 -265 -186 -365 -105 -189 -189
-328 -201 -333 -5 -2 -8 -8 -8 -14 0 -12 -61 -102 -72 -106 -4 -2 -8 -8 -8
-14 0 -21 -319 -445 -394 -524 -6 -6 -38 -42 -71 -80 -114 -129 -268 -289
-376 -388 -35 -32 -87 -79 -114 -105 -28 -25 -71 -62 -95 -81 -24 -19 -50 -42
-59 -50 -27 -25 -151 -124 -227 -181 -80 -60 -97 -73 -185 -135 l-62 -43 64
-29 c35 -16 84 -38 109 -49 25 -12 74 -33 110 -47 36 -15 74 -31 85 -35 11 -5
45 -18 75 -29 30 -11 73 -27 95 -35 22 -8 76 -26 120 -41 44 -14 94 -30 112
-36 18 -6 40 -13 50 -15 10 -2 34 -9 53 -15 19 -7 48 -13 63 -16 15 -2 35 -8
45 -13 14 -7 76 -21 97 -22 2 0 19 -5 37 -10 18 -5 47 -12 63 -15 17 -2 37 -7
45 -9 8 -2 31 -7 50 -11 19 -3 40 -7 45 -8 26 -7 92 -20 110 -22 11 -1 20 -3
20 -4 0 -1 20 -3 44 -6 25 -2 56 -7 70 -10 32 -7 59 -11 131 -19 30 -3 73 -8
95 -11 40 -6 56 -7 265 -20 200 -13 603 -8 785 10 108 11 182 19 196 21 9 2
40 6 70 10 65 8 95 12 174 26 33 6 69 12 80 13 11 2 29 6 40 9 11 3 36 8 55
11 19 4 52 10 73 15 20 5 37 7 37 5 0 -3 8 0 18 5 9 5 31 11 47 14 94 18 494
135 537 158 10 5 18 7 18 3 0 -3 6 -2 13 3 6 5 41 20 77 32 36 13 79 29 95 36
98 43 129 55 141 55 8 0 14 4 14 10 0 5 3 9 8 8 4 -1 25 6 47 16 88 40 410
200 415 207 3 3 21 14 40 24 65 33 319 190 347 215 7 5 15 10 18 10 7 0 285
200 305 220 3 3 50 41 105 85 54 44 111 91 126 105 14 14 59 55 100 91 152
136 392 387 505 528 10 13 24 28 29 35 14 15 156 196 178 227 35 49 117 164
127 179 93 141 190 299 190 310 0 5 4 10 8 10 4 0 13 12 19 28 7 15 22 43 33
62 26 43 105 193 105 200 1 3 15 33 33 67 18 35 32 65 32 68 0 3 13 31 29 63
76 153 263 670 296 821 3 12 7 30 10 42 2 11 7 29 10 39 3 10 8 27 10 37 2 10
8 38 14 63 7 25 14 58 16 74 2 15 7 36 10 46 7 22 13 52 21 105 3 22 9 58 14
80 5 22 12 63 15 90 4 28 9 61 11 75 3 14 7 39 8 55 30 269 36 346 41 492 2
61 6 117 10 122 3 6 3 11 -2 11 -9 0 -9 52 0 66 3 6 2 16 -3 24 -5 8 -5 21 0
30 5 9 5 22 0 30 -4 7 -4 24 0 36 6 14 5 26 0 29 -6 4 -7 13 -1 24 6 10 6 23
1 31 -5 8 -5 21 0 30 5 9 5 22 0 30 -5 8 -5 21 0 30 5 9 5 22 0 30 -4 7 -4 24
0 36 6 14 5 26 0 29 -6 4 -7 13 -1 24 6 10 6 23 1 31 -5 8 -5 21 0 30 5 9 5
22 0 30 -5 8 -5 21 0 30 5 9 5 22 0 30 -4 7 -4 24 0 36 6 14 5 26 0 29 -6 4
-7 13 -1 24 6 10 6 23 1 31 -5 8 -5 21 0 30 5 9 5 22 0 30 -5 8 -5 21 0 30 5
9 5 22 0 30 -5 8 -5 21 1 31 6 11 5 20 -1 24 -6 3 -6 15 0 30 6 15 6 27 0 30
-5 3 -6 13 -3 21 5 12 1 15 -13 11 -10 -4 -30 -8 -44 -11 -77 -13 -338 -132
-348 -157 -2 -5 -8 -9 -14 -9 -15 0 -69 -45 -159 -134 -138 -136 -244 -326
-276 -496 -13 -67 -19 -119 -18 -138 1 -12 -2 -22 -6 -22 -5 0 -4 -12 1 -26 6
-14 7 -23 2 -21 -4 3 -7 -52 -8 -121 -1 -147 -13 -328 -29 -437 -3 -22 -8 -56
-10 -75 -4 -35 -11 -84 -20 -130 -3 -14 -7 -38 -10 -55 -3 -16 -7 -41 -10 -55
-3 -14 -7 -37 -10 -52 -3 -14 -15 -66 -26 -115 -12 -48 -23 -95 -24 -103 -2
-8 -4 -15 -5 -15 -1 0 -3 -8 -5 -18 -2 -10 -11 -41 -20 -70 -9 -28 -17 -59
-19 -67 -2 -8 -6 -22 -9 -30 -5 -15 -60 -180 -62 -190 -1 -3 -5 -14 -10 -25
-4 -11 -23 -60 -42 -110 -38 -100 -38 -99 -124 -280 -34 -71 -63 -132 -64
-135 0 -3 -7 -16 -14 -30 -8 -14 -26 -47 -41 -75 -52 -95 -157 -273 -170 -285
-3 -3 -36 -52 -74 -109 -38 -57 -98 -140 -133 -185 -34 -44 -72 -92 -82 -106
-11 -14 -28 -34 -38 -45 -10 -11 -45 -52 -78 -90 -77 -91 -319 -333 -415 -415
-41 -36 -77 -67 -80 -70 -33 -34 -333 -260 -344 -260 -4 0 -13 -6 -20 -12 -47
-45 -315 -203 -511 -302 -119 -61 -243 -119 -257 -122 -5 -1 -11 -3 -15 -4 -5
-1 -11 -2 -15 -1 -5 0 -8 -3 -8 -8 0 -5 -13 -12 -30 -16 -16 -4 -32 -11 -35
-16 -4 -5 -13 -9 -22 -9 -8 0 -29 -6 -46 -14 -37 -16 -68 -28 -82 -31 -5 -2
-35 -12 -65 -23 -76 -28 -245 -79 -305 -93 -27 -6 -57 -13 -65 -17 -18 -7 -18
-7 -55 -15 -36 -9 -56 -13 -155 -32 -41 -8 -86 -17 -100 -20 -14 -3 -41 -7
-60 -10 -19 -3 -46 -7 -60 -10 -35 -7 -107 -15 -265 -31 -225 -22 -633 -22
-830 0 -22 3 -69 7 -105 11 -35 3 -69 10 -74 15 -7 7 -4 10 7 10 9 0 17 6 17
13 0 8 12 26 28 40 15 15 34 35 42 45 48 56 153 187 202 252 31 41 64 84 73
95 45 57 126 173 196 280 44 66 83 125 87 130 4 6 30 46 56 90 45 73 57 95 98
166 7 13 15 26 18 29 3 3 17 28 32 55 110 213 142 271 149 280 5 5 9 17 9 27
0 10 5 18 10 18 6 0 10 6 10 13 0 6 16 45 35 84 19 40 35 77 35 82 0 5 3 11 8
13 8 4 72 152 79 186 3 12 10 22 16 22 6 0 8 3 4 6 -3 3 4 27 15 52 24 57 98
251 103 272 2 8 18 56 35 105 18 50 33 97 35 105 2 8 12 43 24 77 25 74 105
379 126 477 5 28 12 57 20 96 4 14 8 36 11 50 2 14 7 36 9 50 18 90 34 179 39
220 3 19 7 51 11 70 3 19 8 51 10 70 3 19 7 51 10 70 3 19 7 60 10 90 3 30 8
71 10 90 15 125 24 283 31 505 6 227 4 295 -10 344 -3 9 -8 32 -11 51 -8 48
-42 144 -75 210 -49 98 -60 118 -75 130 -8 7 -15 16 -15 20 0 10 -42 59 -110
130 -84 86 -207 173 -313 222 -53 24 -177 69 -207 74 -14 3 -33 7 -43 10 -15
5 -18 0 -17 -33z"/>
</g>
</svg>
